<?xml version="1.0" standalone="no"?>
<!DOCTYPE svg PUBLIC "-//W3C//DTD SVG 20010904//EN"
 "http://www.w3.org/TR/2001/REC-SVG-20010904/DTD/svg10.dtd">
<svg version="1.0" xmlns="http://www.w3.org/2000/svg"
 width="922.000000pt" height="922.000000pt" viewBox="0 0 922.000000 922.000000"
 preserveAspectRatio="xMidYMid meet">

<g transform="translate(0.000000,922.000000) scale(0.100000,-0.100000)"
fill="#000000" stroke="none">
<path d="M4400 8863 c-54 -18 -87 -23 -117 -19 -41 5 -43 5 -43 -22 0 -20 -13
-38 -52 -71 -50 -41 -55 -43 -105 -39 -36 3 -62 13 -87 32 -30 23 -39 25 -57
15 -25 -13 -101 4 -121 28 -6 8 -25 21 -42 30 -27 14 -31 14 -41 -1 -18 -24
-7 -124 17 -166 12 -19 22 -47 24 -62 2 -15 15 -46 30 -67 14 -22 28 -57 31
-78 4 -35 2 -41 -42 -77 -43 -35 -46 -41 -41 -71 5 -25 1 -39 -17 -61 -43 -54
-58 -84 -52 -105 4 -12 -4 -46 -18 -82 -74 -185 -86 -281 -45 -359 12 -23 23
-63 25 -88 1 -25 2 -48 2 -52 1 -4 7 -5 15 -2 16 6 26 -24 26 -78 0 -28 4 -38
16 -38 37 0 2 -26 -83 -60 -108 -44 -241 -114 -280 -147 -88 -74 -156 -142
-180 -177 -40 -61 -48 -66 -91 -54 -51 14 -283 1 -401 -22 -148 -30 -293 -109
-383 -208 -52 -57 -66 -81 -94 -159 -22 -58 -25 -82 -22 -168 l2 -100 -54 -54
c-30 -29 -89 -79 -130 -111 -91 -69 -257 -232 -298 -292 -76 -111 -107 -222
-96 -339 l6 -67 -38 -36 c-22 -19 -43 -36 -48 -36 -15 0 -96 54 -96 65 0 6 7
24 16 40 165 304 322 655 370 825 41 144 56 226 50 279 -4 30 -12 61 -18 68
-11 14 -140 91 -270 161 -98 53 -134 55 -208 7 -30 -19 -60 -35 -65 -35 -6 0
-55 23 -109 51 -114 58 -128 58 -214 1 l-54 -36 -49 27 c-63 35 -95 34 -152
-4 -83 -55 -263 -250 -363 -394 -89 -130 -225 -337 -260 -398 -21 -37 -51 -89
-66 -115 l-28 -47 0 -452 0 -452 32 5 c24 4 47 -2 81 -20 26 -14 57 -26 68
-26 10 0 19 -5 19 -10 0 -6 10 -24 22 -41 l23 -30 -20 -37 c-29 -53 -80 -69
-149 -45 -28 9 -57 21 -63 26 -10 7 -12 -6 -12 -54 1 -56 4 -66 30 -90 25 -23
29 -34 29 -81 0 -70 16 -85 180 -174 69 -37 138 -76 153 -87 47 -32 111 -20
190 36 108 77 295 288 447 502 113 160 170 243 170 249 0 16 85 126 97 126 19
0 87 -35 101 -53 8 -9 12 -48 11 -108 -3 -193 -1 -221 22 -278 13 -31 31 -69
40 -86 9 -16 20 -46 24 -65 20 -93 78 -178 175 -254 144 -113 320 -164 573
-165 l148 -1 57 -35 c35 -21 70 -35 90 -35 17 0 32 -4 32 -10 0 -5 -6 -10 -14
-10 -8 0 -30 -9 -48 -20 -31 -18 -46 -34 -126 -130 -76 -92 -96 -252 -87 -696
5 -216 4 -314 -4 -318 -19 -12 -140 -22 -156 -14 -44 25 -193 40 -325 33 -74
-4 -263 -9 -420 -12 -157 -2 -337 -6 -400 -8 -63 -3 -151 0 -195 6 -44 5 -143
13 -220 16 -112 4 -151 2 -194 -11 -29 -8 -57 -13 -62 -10 -5 3 -12 -1 -15
-10 -3 -8 -20 -18 -37 -21 -41 -8 -77 -26 -77 -38 0 -6 -11 -24 -23 -41 -93
-123 -101 -185 -95 -697 l4 -375 50 -93 c54 -103 92 -142 180 -185 51 -25 70
-29 194 -33 115 -5 155 -2 256 17 104 20 134 21 239 14 148 -10 585 -7 680 6
112 14 128 20 170 65 46 48 125 195 125 231 0 33 26 94 48 110 9 7 31 12 48
12 28 -1 35 -8 63 -62 17 -34 31 -66 31 -72 0 -6 11 -36 24 -65 33 -74 126
-168 206 -209 l65 -34 160 0 c88 0 273 8 410 17 138 9 317 17 398 17 106 0
165 5 203 16 60 17 180 15 294 -5 71 -13 212 0 239 22 8 7 44 12 81 12 54 0
76 -5 118 -28 88 -48 159 -67 273 -73 111 -6 167 4 263 47 64 28 93 55 122
112 24 49 26 58 20 141 l-7 89 -74 79 c-73 77 -75 81 -76 131 -2 95 3 130 22
179 10 27 19 63 19 81 1 28 11 72 35 145 4 12 11 22 16 22 5 0 9 5 9 11 0 6
15 44 33 84 38 87 73 115 142 115 38 0 47 -4 54 -22 5 -13 7 -26 4 -30 -2 -4
-4 -170 -3 -368 0 -357 8 -485 34 -525 7 -11 17 -34 23 -51 16 -46 61 -114 81
-121 9 -4 34 -21 56 -39 56 -48 91 -61 186 -70 136 -12 230 -8 293 14 107 38
195 159 197 271 0 43 -41 114 -105 181 -74 76 -81 102 -59 205 8 39 24 120 35
180 11 61 23 122 26 138 3 15 9 30 14 33 5 3 9 12 9 20 0 8 16 37 35 64 19 27
35 60 35 73 0 14 17 40 42 65 35 36 47 42 83 42 53 0 79 -26 79 -78 -1 -20 -6
-145 -12 -277 -6 -132 -8 -323 -5 -425 l5 -185 44 -90 c26 -54 59 -106 84
-130 l40 -39 98 -4 c60 -2 147 4 230 16 146 21 215 16 297 -23 52 -26 111 -88
126 -133 6 -20 19 -46 29 -57 10 -11 21 -30 24 -42 13 -42 107 -83 194 -83 70
0 150 44 203 114 110 143 168 177 341 197 56 6 106 16 109 21 8 13 288 16 379
5 74 -9 121 -18 200 -41 39 -11 99 -16 201 -16 146 0 146 0 206 33 34 17 82
51 107 74 l46 41 0 594 0 593 -36 38 c-42 44 -80 66 -123 69 -18 1 -41 11 -52
21 -20 19 -96 33 -154 29 -16 -1 -87 -7 -156 -13 l-126 -12 -98 101 c-58 60
-120 114 -153 133 l-56 31 -125 -4 c-125 -4 -127 -4 -181 -40 -30 -19 -68 -47
-83 -62 -15 -14 -32 -26 -37 -26 -5 0 -17 -10 -27 -23 -10 -12 -35 -37 -56
-55 l-38 -32 -187 0 c-103 0 -201 -4 -219 -9 -17 -5 -33 -8 -35 -6 -2 2 -21
-2 -42 -9 -43 -15 -110 -2 -130 26 -6 8 -15 15 -21 14 -17 -2 -17 196 0 285
17 93 20 379 5 497 -20 153 -117 290 -258 362 l-62 32 -153 -7 c-83 -4 -211
-8 -283 -8 -130 -2 -131 -2 -118 -22 26 -36 36 -93 24 -130 -11 -33 -62 -75
-91 -75 -7 0 -43 -18 -80 -40 -63 -37 -71 -40 -109 -31 -22 5 -44 9 -48 9 -4
0 -13 21 -21 47 -14 42 -13 49 4 78 29 52 63 83 123 113 52 26 71 40 72 54 0
3 -27 16 -60 28 -75 29 -90 44 -90 88 0 28 -4 34 -21 34 -16 0 -19 4 -14 19 4
13 0 23 -11 29 -10 6 -15 16 -11 26 11 27 9 31 -15 36 -20 5 -22 11 -20 44 3
34 -1 43 -35 73 -37 34 -37 35 -18 49 11 8 28 13 38 10 15 -4 16 -2 6 10 -6 8
-9 17 -6 21 9 8 61 -14 145 -64 223 -132 355 -173 552 -173 75 0 112 -4 119
-12 6 -7 24 -29 41 -49 16 -20 30 -42 30 -48 0 -6 3 -11 8 -11 4 0 17 -17 30
-38 27 -43 81 -82 116 -82 33 0 73 16 116 45 33 23 45 24 215 29 137 3 200 10
264 25 215 54 414 218 451 373 13 51 26 84 56 140 8 15 22 57 31 93 14 56 14
77 5 129 -17 92 -15 171 4 191 20 20 89 55 106 54 7 0 68 -84 136 -187 229
-349 458 -616 611 -714 75 -47 98 -42 286 64 l60 34 3 842 c2 811 1 842 -16
842 -10 0 -41 -11 -67 -25 -27 -13 -51 -23 -53 -21 -1 2 -24 35 -50 74 -26 38
-82 122 -124 186 l-78 115 51 48 c28 26 54 49 58 51 8 3 121 -146 166 -219 6
-9 32 -49 60 -90 46 -69 50 -72 53 -46 4 31 -55 126 -199 317 -91 122 -144
180 -249 274 -116 105 -140 112 -214 71 -25 -14 -50 -25 -56 -25 -5 0 -36 17
-66 37 -77 51 -108 50 -211 -10 -45 -26 -89 -47 -97 -47 -8 0 -34 13 -58 28
-85 56 -99 58 -170 24 -35 -17 -94 -49 -133 -70 -38 -22 -96 -54 -128 -72 -31
-17 -62 -40 -67 -50 -17 -32 -11 -160 11 -235 11 -38 26 -92 34 -120 41 -151
189 -486 325 -736 l62 -114 -33 -28 c-53 -43 -73 -44 -118 -6 l-40 34 6 71
c16 212 -73 366 -338 584 -57 47 -132 112 -168 146 l-64 61 -1 124 c-1 118 -3
127 -34 190 -72 149 -220 260 -422 320 -65 19 -313 44 -331 34 -22 -14 -5 -23
54 -27 213 -13 497 -301 497 -503 0 -68 -16 -80 -25 -19 -14 97 -45 121 -45
36 0 -51 -18 -127 -27 -118 -4 3 -8 23 -10 44 -3 37 -51 154 -66 160 -4 2 -17
22 -28 44 -29 57 -73 115 -106 141 -15 12 -35 29 -44 38 -15 15 -83 55 -182
107 -37 19 -37 21 -15 28 22 7 22 7 3 15 -11 4 -38 8 -61 8 -75 2 -101 18
-153 95 -27 39 -64 85 -83 101 -53 47 -111 90 -138 105 -14 7 -27 17 -30 21
-7 10 -202 102 -252 118 -43 14 -55 28 -39 44 6 6 11 25 11 42 0 53 11 77 32
72 16 -5 18 0 17 48 -2 39 4 62 19 88 43 68 19 246 -49 378 -12 23 -17 47 -13
65 4 21 -1 38 -20 64 -14 19 -33 46 -42 58 -15 20 -16 27 -4 45 12 19 8 25
-40 70 l-54 49 13 46 c7 26 23 61 37 79 13 17 24 41 24 53 0 11 10 40 22 63
21 41 32 156 16 172 -7 7 -83 -29 -93 -45 -3 -5 -24 -14 -47 -21 -32 -8 -47
-8 -66 2 -20 12 -26 11 -36 -3 -17 -23 -82 -48 -128 -48 -32 0 -47 8 -88 46
-27 25 -50 55 -52 67 -3 19 -9 22 -40 19 -20 -1 -69 7 -110 19 -99 30 -177 35
-235 15 -58 -20 -103 -20 -150 -1 -52 22 -146 17 -233 -12z m182 -25 c-5 -34
33 -46 126 -41 83 5 123 15 121 31 -4 26 4 32 50 32 32 0 56 -6 72 -19 13 -10
44 -21 67 -24 29 -3 49 -13 59 -26 9 -13 25 -21 44 -21 30 0 70 -35 94 -84 11
-22 114 -78 127 -70 4 3 3 14 -2 25 -9 16 -7 19 15 19 15 0 25 6 25 15 0 8 13
16 33 19 17 3 48 8 67 11 19 3 48 5 64 5 21 0 37 10 63 40 19 22 39 38 44 34
14 -9 10 -63 -7 -101 -14 -28 -21 -33 -40 -29 -18 5 -27 0 -39 -18 -22 -33
-91 -77 -110 -70 -30 12 -5 -68 36 -111 16 -17 29 -40 29 -51 0 -13 15 -28 45
-44 43 -23 57 -40 35 -40 -18 0 -11 -19 25 -70 40 -56 41 -60 20 -60 -8 0 -15
-3 -15 -7 0 -9 50 -95 68 -116 14 -16 14 -19 -2 -30 -15 -11 -13 -18 30 -76
l47 -63 -16 -32 c-11 -21 -18 -61 -19 -126 -2 -77 -6 -95 -18 -95 -11 0 -16
-16 -20 -60 -5 -55 -7 -60 -27 -57 -15 2 -23 -2 -23 -11 0 -8 -6 -17 -14 -20
-8 -3 -16 -30 -20 -67 -4 -34 -10 -68 -13 -76 -7 -18 -23 -18 -23 0 0 8 -4 17
-10 21 -5 3 -12 -17 -16 -45 -7 -56 -19 -51 -29 12 -4 21 -11 38 -16 38 -6 0
-8 4 -4 9 8 14 -15 25 -27 13 -9 -9 -48 -5 -48 5 0 2 5 24 11 48 12 46 30 61
56 46 29 -16 52 -1 59 38 3 20 14 55 25 78 10 24 19 59 19 78 0 33 2 35 26 29
25 -6 25 -6 18 32 -3 22 -8 40 -9 42 -7 8 -35 -12 -35 -25 0 -10 -6 -13 -17
-9 -19 8 -36 -13 -23 -29 5 -6 0 -20 -12 -34 -15 -19 -21 -22 -28 -12 -13 22
-27 5 -45 -54 -17 -54 -29 -67 -38 -42 -2 6 -12 -6 -21 -27 -16 -38 -17 -39
-36 -21 -11 10 -20 13 -20 7 0 -6 -17 -21 -39 -34 -21 -12 -52 -42 -70 -67
-25 -36 -31 -41 -31 -24 0 26 20 73 31 73 15 0 69 52 69 68 0 8 8 24 17 35 17
17 17 19 1 28 -16 9 -16 12 4 47 11 20 31 50 44 65 13 16 24 35 24 43 0 26
-78 -46 -90 -82 -7 -19 -18 -34 -25 -34 -8 0 -39 -25 -69 -56 -31 -32 -59 -53
-66 -49 -6 4 -17 2 -24 -4 -23 -19 -42 13 -27 46 10 22 14 24 21 12 8 -12 13
-12 31 -1 11 7 23 11 26 8 12 -12 42 16 53 50 13 39 60 113 85 134 8 7 15 16
15 21 0 17 -22 9 -42 -16 -11 -14 -25 -25 -32 -25 -14 0 -46 -61 -46 -88 -1
-16 -2 -16 -14 1 -13 16 -14 16 -29 -5 l-16 -23 0 33 c-1 18 3 40 9 50 23 42
39 111 31 139 -9 30 -5 44 21 83 9 14 19 43 22 65 5 34 5 36 -4 14 -7 -17 -23
-30 -48 -37 -54 -17 -66 2 -24 36 18 15 32 32 32 38 0 13 -47 7 -56 -7 -9 -14
-66 -11 -61 4 5 14 -45 47 -73 47 -11 0 -20 4 -20 9 0 17 39 23 105 16 65 -7
65 -7 65 18 0 21 17 39 80 87 49 38 82 70 86 86 7 27 -10 77 -32 95 -11 9 -14
7 -14 -9 0 -12 5 -24 10 -27 15 -9 11 -57 -6 -80 -14 -17 -17 -18 -26 -5 -14
22 -179 11 -206 -13 -10 -9 -30 -17 -43 -17 -14 0 -31 -6 -38 -12 -11 -10 -13
-10 -7 0 5 8 0 12 -14 12 -15 0 -26 -12 -41 -45 -11 -25 -26 -45 -34 -45 -15
0 -45 27 -45 41 0 5 -10 8 -22 6 -18 -1 -24 4 -26 25 -3 28 32 108 48 108 6 0
10 7 10 15 0 9 -9 15 -24 15 -17 0 -31 -13 -54 -50 -44 -71 -79 -66 -124 18
-12 23 -24 32 -43 32 -31 0 -31 -2 3 -53 16 -23 31 -51 34 -63 7 -26 -8 -54
-28 -54 -9 0 -24 -10 -33 -22 -23 -28 -46 -19 -69 29 -16 34 -21 38 -51 35
-19 -1 -52 8 -82 23 -37 18 -62 24 -102 22 -28 -2 -64 0 -79 4 -16 4 -28 4
-28 -2 0 -19 -31 -8 -42 16 -8 19 -8 31 0 50 14 31 15 55 3 55 -5 0 -17 -20
-27 -45 -21 -56 -12 -79 48 -121 73 -53 118 -96 118 -115 0 -17 6 -18 73 -13
60 5 75 4 86 -10 12 -14 11 -16 -7 -16 -31 0 -92 -31 -92 -47 0 -7 -1 -13 -2
-13 -2 0 -28 7 -58 15 -30 8 -56 15 -58 15 -2 0 7 -13 20 -29 13 -17 29 -30
36 -30 14 -1 16 -27 3 -35 -13 -9 -64 12 -78 31 -12 15 -13 14 -13 -9 0 -14
10 -38 22 -53 14 -18 21 -40 20 -62 -1 -18 -2 -41 -3 -50 -1 -20 13 -73 32
-119 14 -35 5 -79 -12 -54 -8 13 -10 13 -18 1 -7 -11 -11 -10 -19 5 -5 11 -12
32 -16 47 -4 15 -17 32 -29 38 -12 6 -34 27 -49 46 -24 31 -28 33 -28 15 0
-12 12 -36 28 -54 35 -42 48 -63 72 -116 11 -23 27 -45 37 -48 10 -3 27 -10
38 -15 11 -5 29 -8 40 -6 12 1 21 -5 23 -16 5 -23 -18 -51 -31 -38 -5 5 -15 7
-22 5 -7 -3 -38 20 -68 50 -30 31 -60 56 -66 56 -6 0 -19 17 -30 38 -18 35
-77 89 -87 79 -3 -2 6 -17 19 -33 30 -36 57 -88 57 -109 0 -21 -42 -19 -56 3
-6 10 -15 33 -19 52 -8 39 -31 70 -52 70 -8 0 -13 11 -13 30 0 16 -6 33 -13
37 -22 13 -29 96 -10 122 10 15 13 34 10 58 -4 20 -2 44 3 54 11 20 4 45 -15
53 -17 6 -58 -153 -44 -170 6 -7 5 -22 -1 -38 -14 -38 -13 -71 4 -85 7 -6 16
-25 20 -42 11 -54 108 -164 155 -174 20 -4 33 -17 45 -43 9 -21 32 -48 51 -60
29 -20 55 -64 55 -93 0 -18 -21 -8 -30 14 -14 34 -31 51 -77 80 -24 15 -43 32
-43 37 0 6 -4 10 -10 10 -5 0 -10 -7 -10 -16 0 -25 -23 -11 -34 22 -6 16 -18
30 -26 32 -26 6 -37 21 -44 61 -6 39 -24 55 -50 45 -14 -5 -25 22 -26 66 l-1
25 -15 -28 c-18 -32 -34 -27 -34 11 l-1 27 -20 -24 c-24 -29 -22 -67 3 -63 13
2 21 -12 34 -58 9 -33 22 -65 30 -70 8 -7 11 -23 7 -44 -7 -42 14 -61 51 -46
45 17 55 12 67 -31 10 -32 10 -45 1 -60 -10 -15 -9 -31 4 -79 14 -49 15 -62 4
-75 -16 -19 -30 -4 -30 32 0 12 -6 23 -12 26 -10 3 -10 9 1 29 10 20 11 30 1
48 l-12 22 -18 -29 c-10 -16 -21 -44 -25 -61 -9 -42 -21 -41 -29 3 -7 35 -19
44 -32 24 -11 -18 -24 11 -24 55 0 21 -5 56 -12 77 -9 31 -14 37 -25 28 -10
-9 -13 -7 -13 9 0 13 -6 19 -17 18 -15 -1 -19 9 -21 57 -2 47 -6 58 -18 53
-24 -9 -32 32 -26 132 3 60 1 92 -6 92 -26 0 -18 34 23 88 47 62 56 86 30 76
-22 -9 -19 -1 25 71 42 69 51 101 25 91 -17 -6 -21 9 -5 19 23 14 61 87 55
105 -4 14 4 24 35 41 25 14 43 33 47 49 3 14 19 40 35 58 15 18 28 38 28 45 0
7 3 22 6 35 5 17 3 21 -9 17 -16 -7 -83 35 -103 64 -7 10 -27 21 -44 25 -33 6
-60 51 -60 99 0 39 12 39 52 0 27 -27 48 -38 71 -39 62 -2 152 -24 163 -39 6
-8 19 -15 29 -15 13 0 16 -5 11 -25 l-6 -24 47 20 c52 22 83 46 83 63 0 6 14
26 30 44 21 22 39 32 59 32 17 0 42 11 59 25 17 14 42 25 57 25 15 0 39 9 53
20 34 27 129 25 124 -2z m1018 -225 c0 -5 -7 -17 -15 -27 -8 -11 -13 -28 -10
-37 4 -13 -3 -23 -25 -34 -18 -9 -34 -14 -36 -12 -6 6 17 57 25 57 4 0 15 14
24 30 17 28 37 40 37 23z m-1740 -35 c0 -7 10 -22 22 -35 25 -27 20 -36 -16
-27 -20 5 -26 12 -26 34 0 16 -4 32 -10 35 -20 12 -10 26 10 15 11 -6 20 -16
20 -22z m880 -315 c0 -8 8 -25 17 -40 16 -25 16 -26 -6 -44 -28 -23 -43 -24
-81 -4 -34 18 -35 22 -15 49 8 11 15 27 15 36 0 12 10 16 35 16 23 0 35 -5 35
-13z m-101 -112 c7 -5 15 -19 17 -32 2 -13 7 -38 10 -56 5 -25 2 -33 -16 -43
-12 -7 -42 -27 -66 -45 -24 -19 -53 -37 -65 -40 -29 -10 -65 27 -73 74 -3 21
-15 46 -26 56 -11 10 -17 22 -14 26 10 17 39 9 68 -18 32 -29 31 -32 10 37 -7
24 8 26 30 5 22 -23 36 -18 36 12 0 25 1 25 18 10 24 -22 32 -21 32 3 0 21 16
26 39 11z m180 -8 c8 -15 12 -16 22 -5 22 21 31 13 24 -20 -7 -32 -7 -33 12
-15 11 9 27 17 36 17 13 0 15 -6 10 -32 l-6 -33 25 23 c24 22 68 30 68 13 0
-6 -11 -22 -24 -36 -14 -15 -22 -33 -19 -41 7 -18 -35 -84 -53 -84 -9 0 -44
20 -79 44 l-63 45 0 -36 c0 -20 -6 -40 -13 -44 -47 -31 -102 -18 -113 26 -13
52 68 100 99 59 9 -13 11 -7 11 32 -1 27 -5 52 -10 55 -11 8 29 49 49 49 7 0
18 -8 24 -17z m-412 -172 c21 -28 51 -55 67 -62 15 -7 40 -25 55 -42 15 -16
43 -32 62 -36 28 -5 38 -15 56 -51 l22 -45 -22 -17 c-12 -10 -29 -18 -37 -18
-8 0 -39 -9 -68 -20 -90 -34 -152 -25 -211 31 -46 44 -76 87 -68 95 8 8 44
-16 87 -58 26 -26 47 -38 66 -38 l29 0 -28 15 c-47 24 -143 128 -156 168 -16
48 -9 71 10 32 8 -16 30 -37 49 -48 20 -10 45 -31 55 -48 19 -27 45 -43 28
-16 -4 6 -9 21 -10 32 -2 11 -15 30 -31 42 -72 58 -89 92 -60 121 27 27 65 14
105 -37z m700 37 c27 -35 23 -49 -32 -103 -30 -29 -55 -61 -55 -69 0 -22 7
-20 38 14 15 16 36 30 47 32 11 2 25 15 32 31 21 47 32 30 13 -20 -10 -26 -33
-61 -52 -78 -20 -16 -38 -38 -41 -47 -3 -9 -23 -26 -44 -37 -21 -11 -33 -20
-26 -21 25 -1 69 23 93 49 23 27 60 51 75 51 10 0 -23 -49 -57 -85 -32 -34
-36 -47 -10 -38 13 4 14 3 6 -6 -14 -16 -189 -10 -254 8 -95 27 -102 35 -73
95 13 28 27 39 65 52 32 10 53 24 60 40 6 13 23 26 40 29 16 4 40 22 56 42 15
20 35 44 45 54 20 22 60 25 74 7z m-522 -108 c3 -5 1 -10 -4 -10 -6 0 -11 5
-11 10 0 6 2 10 4 10 3 0 8 -4 11 -10z m265 1 c0 -5 -11 -8 -25 -8 -14 0 -25
3 -25 8 0 5 11 9 25 9 14 0 25 -4 25 -9z m-120 -55 c0 -19 -21 -26 -42 -14
-28 14 -21 28 12 28 19 0 30 -5 30 -14z m-386 -177 c-8 -13 -21 -11 -27 5 -4
10 0 12 14 9 10 -3 16 -9 13 -14z m-445 -39 c1 -13 0 -13 -9 0 -5 8 -9 24 -9
35 l0 20 9 -20 c5 -11 9 -27 9 -35z m785 -11 c-3 -5 -10 -7 -15 -3 -5 3 -7 10
-3 15 3 5 10 7 15 3 5 -3 7 -10 3 -15z m-61 -22 c-3 -5 -10 -4 -15 1 -6 6 -7
16 -3 22 6 9 9 9 16 -1 4 -7 5 -17 2 -22z m179 1 c-9 -9 -12 -7 -12 12 0 19 3
21 12 12 9 -9 9 -15 0 -24z m-322 -81 c0 -57 5 -140 11 -185 15 -113 9 -129
-23 -62 -46 95 -88 247 -88 316 l0 34 50 0 50 0 0 -103z m83 89 c8 -19 -3 -57
-14 -50 -12 7 -12 64 0 64 5 0 11 -6 14 -14z m311 6 c7 -12 -5 -52 -15 -52 -5
0 -9 14 -9 30 0 28 13 40 24 22z m163 -29 c-6 -37 -24 -112 -48 -203 -14 -53
-60 -151 -69 -145 -3 2 -2 39 1 82 4 43 8 129 8 191 l1 112 56 0 57 0 -6 -37z
m343 -200 c0 -19 -3 -24 -10 -17 -6 6 -8 18 -4 27 9 24 14 21 14 -10z m95 -45
c5 -18 3 -28 -4 -28 -6 0 -11 -13 -11 -29 0 -38 -12 -45 -33 -20 -19 21 -22
33 -7 24 6 -3 10 5 10 19 0 36 19 81 30 70 5 -5 12 -21 15 -36z m-1425 12 c0
-5 -5 -10 -11 -10 -5 0 -7 5 -4 10 3 6 8 10 11 10 2 0 4 -4 4 -10z m76 -7 c17
-17 17 -18 -4 -21 -26 -4 -28 -19 -5 -44 15 -17 15 -18 -5 -18 -24 0 -45 30
-37 54 3 9 7 23 10 31 6 20 20 19 41 -2z m1214 -8 c0 -21 5 -25 30 -25 20 0
30 -5 30 -15 0 -12 -4 -13 -26 -3 -24 11 -29 10 -42 -10 -8 -12 -24 -22 -35
-22 -20 0 -20 0 2 24 21 22 21 25 5 34 -22 12 -11 42 16 42 15 0 20 -7 20 -25z
m-1559 -30 c9 -36 16 -45 33 -45 13 0 28 -12 39 -33 l19 -32 23 28 22 29 22
-31 c21 -29 51 -42 51 -22 0 14 30 41 45 41 20 0 29 -55 13 -82 -15 -28 -165
-168 -179 -168 -5 0 -9 2 -9 5 0 7 40 77 62 108 11 16 18 31 15 34 -12 11 -70
-35 -177 -140 -60 -59 -114 -107 -120 -107 -6 0 -32 11 -58 25 -26 13 -59 29
-74 34 -36 13 -35 33 2 73 25 28 28 30 23 11 -8 -36 11 -28 72 29 31 28 79 69
107 90 61 45 46 52 -17 8 -49 -33 -65 -37 -65 -15 0 18 -5 19 -33 4 -22 -12
-133 -102 -152 -124 -27 -31 -65 -47 -95 -40 -22 5 -30 11 -26 22 20 51 155
192 231 240 78 50 174 98 207 102 4 1 13 -19 19 -44z m2007 -12 c74 -38 113
-65 177 -128 73 -71 125 -143 125 -175 0 -5 -13 -10 -28 -10 -21 0 -50 20
-114 78 -134 121 -154 133 -146 87 6 -31 -2 -31 -53 1 -72 45 -64 19 12 -38
41 -31 81 -63 88 -72 7 -9 30 -20 51 -26 23 -6 40 -18 43 -29 3 -15 -7 -23
-52 -41 -31 -13 -67 -32 -80 -42 -28 -21 -36 -18 -95 48 -50 56 -202 187 -227
196 -11 4 -5 -16 22 -70 21 -42 35 -80 32 -86 -8 -13 -138 131 -159 176 -17
37 -14 68 7 68 6 0 13 -9 16 -20 8 -29 47 -26 71 6 l19 27 21 -23 c12 -13 23
-22 25 -19 2 2 11 16 20 32 10 15 26 27 37 27 14 0 23 11 31 40 16 53 36 53
157 -7z m-1738 12 c0 -9 -9 -15 -21 -15 -18 0 -19 2 -9 15 7 8 16 15 21 15 5
0 9 -7 9 -15z m163 -87 c8 -30 0 -36 -18 -12 -18 24 -19 34 -1 34 7 0 16 -10
19 -22z m1017 13 c0 -10 -39 -59 -40 -49 0 17 20 58 30 58 5 0 10 -4 10 -9z
m-768 -114 c9 -88 1 -114 -28 -85 -22 22 -31 146 -14 178 12 22 13 22 22 5 6
-10 15 -54 20 -98z m537 24 c-1 -31 -4 -69 -8 -86 -7 -33 -35 -45 -45 -20 -6
16 8 141 20 179 12 38 34 -12 33 -73z m320 11 c32 -164 34 -193 19 -209 -18
-18 -93 -29 -101 -15 -4 5 0 47 8 93 8 46 15 104 15 130 0 87 42 88 59 1z
m-1150 40 c11 -21 17 -243 7 -260 -10 -16 -48 -15 -71 2 -18 13 -18 19 -7 107
21 154 43 202 71 151z m98 -74 c-3 -7 -5 -2 -5 12 0 14 2 19 5 13 2 -7 2 -19
0 -25z m118 -134 c8 -80 -6 -103 -25 -42 -7 24 -20 50 -27 59 -18 22 -16 49 5
65 25 19 38 -3 47 -82z m693 74 c16 -16 15 -48 -2 -67 -7 -9 -17 -28 -22 -43
-13 -42 -29 -33 -27 15 6 100 20 126 51 95z m-303 -40 c14 -6 39 -33 55 -59
16 -27 42 -56 57 -66 41 -26 44 -33 37 -93 -10 -97 -44 -152 -44 -72 0 27 -3
33 -10 22 -5 -8 -10 -24 -10 -35 0 -30 -34 -105 -45 -102 -5 2 -12 14 -13 26
-4 22 -5 22 -38 -13 -19 -21 -34 -46 -34 -60 0 -58 -34 -36 -90 59 -34 57 -40
39 -10 -31 11 -26 19 -49 16 -51 -8 -9 -55 59 -72 104 -32 88 -44 71 -18 -27
l6 -25 -16 22 c-27 37 -47 104 -53 184 -5 71 -4 76 15 81 11 3 37 29 58 58 21
29 51 61 68 71 35 21 102 25 141 7z m-1720 -47 c16 -7 9 -11 -33 -20 -29 -6
-60 -11 -67 -11 -8 0 -15 -4 -15 -10 0 -5 7 -10 16 -10 23 0 -17 -31 -76 -59
-63 -30 -140 -88 -140 -106 0 -28 32 -15 93 38 72 61 82 66 202 105 129 42
199 55 254 46 l46 -7 -75 -18 c-87 -20 -154 -48 -207 -84 -33 -22 -35 -25 -15
-25 13 0 35 8 49 17 34 22 210 82 243 83 14 0 32 5 40 10 12 8 12 10 -5 11
-12 0 -15 3 -7 6 8 3 28 -1 45 -10 18 -8 52 -21 76 -28 25 -8 46 -19 48 -25 2
-5 -32 -27 -74 -47 -144 -69 -250 -161 -345 -300 -44 -65 -62 -72 -26 -11 33
58 67 104 112 152 22 23 35 42 30 42 -12 0 -123 -120 -138 -148 -5 -9 -19 -28
-31 -42 -13 -14 -48 -65 -78 -115 -68 -109 -138 -188 -164 -183 -10 1 -26 20
-36 41 -10 20 -22 37 -27 37 -4 0 -13 -20 -20 -45 -8 -27 -18 -45 -27 -45 -31
0 -2 93 76 239 10 19 16 43 13 53 -5 21 -22 24 -22 4 0 -19 -58 -106 -71 -106
-5 0 -9 6 -9 13 0 6 -21 25 -46 41 -25 16 -51 40 -56 52 -6 13 -15 24 -20 24
-14 0 -36 -61 -44 -118 -10 -81 -35 -65 -44 28 -3 30 -9 55 -15 55 -5 0 -17
-22 -26 -48 -18 -53 -29 -45 -29 21 1 148 149 340 340 441 98 51 252 83 305
62z m3272 -52 c60 -17 127 -41 150 -53 55 -28 207 -175 231 -223 26 -52 45
-172 37 -233 -7 -52 -19 -70 -28 -46 -10 27 -58 98 -63 93 -2 -2 9 -32 26 -66
48 -96 64 -201 32 -201 -5 0 -15 15 -22 33 -23 55 -34 64 -40 31 -12 -68 -96
-25 -166 84 -144 223 -204 305 -241 326 -20 11 -13 -1 42 -74 38 -50 60 -90
51 -90 -2 0 -13 15 -25 33 -11 17 -64 76 -118 130 -84 84 -112 105 -200 150
-57 29 -103 57 -103 63 0 12 65 34 103 34 14 0 30 6 34 14 12 20 31 24 115 25
59 1 104 -7 185 -30z m-2343 -7 c40 -7 63 -32 30 -32 -23 0 -178 -64 -166 -68
5 -1 36 6 68 18 160 56 405 77 405 35 0 -5 -34 -19 -75 -29 -42 -10 -74 -21
-72 -23 2 -2 38 0 80 6 98 14 131 7 147 -30 6 -16 9 -32 6 -35 -3 -3 -41 -10
-84 -16 -112 -15 -119 -31 -9 -25 101 6 116 3 116 -24 0 -18 2 -18 24 -4 24
16 24 16 46 -41 11 -31 19 -63 16 -71 -4 -10 -29 -12 -118 -7 -62 3 -140 1
-173 -4 -55 -9 -50 -10 70 -11 143 -1 199 -15 261 -65 35 -28 47 -63 18 -52
-39 15 -68 18 -119 11 -66 -8 -73 -25 -10 -25 54 0 118 -30 142 -66 9 -14 17
-44 17 -67 l1 -41 -90 -2 c-49 -2 -103 -7 -120 -13 -25 -8 -17 -9 48 -10 139
-2 179 -50 95 -112 -62 -46 -180 -100 -230 -106 -24 -3 -57 -11 -74 -19 -85
-38 -414 -83 -414 -57 0 8 155 63 221 77 36 8 169 69 169 78 0 9 -97 0 -125
-12 -69 -28 -304 -54 -432 -47 -135 6 -150 20 -47 42 44 9 104 23 134 31 30 9
73 20 95 26 22 5 54 16 70 23 l30 14 -46 0 c-25 1 -97 -6 -160 -14 -63 -8
-171 -18 -241 -22 -118 -6 -128 -5 -134 12 -13 32 91 118 211 175 58 28 110
50 118 50 7 0 22 7 33 15 19 14 19 14 0 15 -27 0 -144 -29 -181 -45 -16 -7
-41 -16 -55 -20 -14 -4 -51 -21 -83 -38 -31 -16 -60 -28 -63 -25 -7 7 79 82
131 113 74 45 229 117 312 143 86 28 104 49 37 44 -39 -3 -190 -47 -209 -61
-5 -4 -32 -16 -60 -26 -55 -21 -151 -70 -176 -91 -8 -8 -19 -14 -23 -14 -4 0
-21 -9 -38 -21 -85 -61 -5 68 85 136 36 27 92 63 124 80 84 44 107 61 88 69
-9 3 -23 2 -33 -3 -9 -5 -66 -33 -126 -62 -59 -29 -110 -59 -113 -66 -3 -7 -9
-13 -14 -13 -15 0 70 123 137 197 94 105 253 208 344 223 58 10 135 11 184 2z
m1633 -1 c116 -22 253 -108 359 -224 112 -123 197 -280 105 -193 -32 30 -157
96 -179 95 -12 0 -11 -3 5 -9 22 -9 90 -58 161 -116 54 -44 121 -154 94 -154
-5 0 -31 12 -57 28 -237 137 -365 195 -462 206 l-48 6 56 -19 c31 -11 83 -31
115 -46 33 -15 70 -31 82 -36 76 -29 262 -175 262 -205 0 -19 1 -19 -84 27
-70 38 -254 104 -263 95 -5 -5 74 -36 92 -36 8 0 15 -4 15 -9 0 -5 10 -13 23
-16 40 -13 125 -74 156 -114 53 -67 40 -84 -62 -76 -34 2 -107 7 -162 10 -55
4 -118 10 -140 15 -22 4 -69 11 -105 14 -61 5 -63 5 -35 -8 30 -14 79 -27 275
-70 58 -12 104 -27 103 -31 -1 -5 -19 -15 -40 -23 -69 -25 -304 -4 -573 51
-36 8 -75 17 -87 21 -13 4 -23 3 -23 -2 0 -17 65 -50 152 -77 46 -14 117 -37
158 -50 42 -14 83 -25 93 -25 9 0 17 -3 17 -8 0 -10 -152 -5 -260 8 -153 19
-425 127 -491 195 l-29 29 20 21 c18 17 36 20 130 23 61 2 110 7 110 11 0 17
-83 31 -180 31 l-103 0 6 41 c10 75 76 117 194 124 27 2 55 4 63 5 8 0 -1 8
-20 16 -25 11 -60 15 -128 12 -50 -2 -92 0 -92 4 0 9 47 40 95 62 44 21 234
38 320 29 l50 -5 -25 18 c-22 17 -44 19 -175 18 -104 0 -166 -5 -202 -16 l-53
-15 0 29 c0 19 6 31 18 34 34 11 47 21 50 43 2 11 9 22 15 22 7 1 18 2 25 3 7
0 17 8 22 16 12 19 185 27 230 11 17 -5 30 -7 30 -2 0 15 -72 41 -128 47 -31
3 -67 7 -80 10 l-23 5 22 30 22 31 99 -5 c55 -3 98 -4 96 -2 -2 1 -34 13 -71
25 -58 20 -66 25 -50 34 34 20 191 11 278 -17 44 -14 108 -34 142 -45 35 -11
61 -16 58 -12 -7 11 -181 80 -201 80 -24 0 -11 24 17 31 41 10 142 10 196 0z
m-3031 -30 c-112 -89 -212 -202 -230 -259 -4 -12 -11 -22 -17 -22 -10 0 24 92
47 128 15 23 30 41 85 98 28 29 121 84 142 84 6 0 -7 -13 -27 -29z m-1475 -43
c6 -13 30 -39 52 -59 28 -25 39 -40 34 -52 -7 -18 -52 -24 -62 -8 -3 6 -34 23
-69 40 -36 17 -68 36 -72 42 -10 17 45 59 78 59 18 0 31 -8 39 -22z m7286 1
c34 -21 34 -22 16 -39 -10 -10 -52 -36 -94 -59 -74 -39 -77 -40 -93 -22 -19
21 -19 20 45 77 20 16 38 38 42 47 9 23 43 21 84 -4z m-1401 -67 c29 -30 94
-145 94 -166 0 -21 -22 3 -49 54 -18 33 -56 86 -84 116 -29 31 -54 61 -56 67
-6 15 55 -30 95 -71z m-6169 60 c22 -14 27 -66 8 -82 -14 -11 -23 -10 -65 11
-57 27 -62 42 -22 63 30 17 61 20 79 8z m696 -35 c23 -23 63 -56 89 -72 58
-36 65 -51 36 -76 -33 -27 -32 -27 -128 28 -19 11 -65 36 -102 57 -38 21 -68
42 -68 47 0 14 85 56 118 58 7 1 32 -18 55 -42z m3458 10 c-8 -8 -11 -7 -11 4
0 20 13 34 18 19 3 -7 -1 -17 -7 -23z m3040 7 c28 -14 49 -30 46 -37 -2 -7
-41 -31 -87 -54 -46 -24 -86 -47 -89 -52 -3 -4 -21 -16 -40 -26 -33 -17 -36
-17 -68 0 -39 22 -42 38 -8 53 14 6 25 16 25 21 0 5 11 12 24 15 14 3 41 26
61 50 20 25 46 47 58 49 12 2 23 5 25 6 1 0 25 -10 53 -25z m647 6 c17 -11 32
-24 32 -28 0 -5 -22 -19 -50 -32 -48 -22 -51 -23 -69 -6 -17 15 -18 22 -8 44
21 48 44 53 95 22z m-4069 -274 c7 -9 8 -17 2 -20 -14 -9 -41 4 -41 20 0 18
24 18 39 0z m-4049 -62 c16 -10 30 -23 30 -29 0 -10 -97 -163 -110 -175 -3 -3
-16 -22 -29 -43 -13 -21 -28 -43 -35 -50 -6 -6 -20 -29 -31 -49 -11 -21 -23
-38 -27 -38 -5 0 -8 -7 -8 -15 0 -22 -27 -18 -64 10 -18 14 -45 25 -59 25 -36
0 -34 15 8 79 19 29 35 57 35 62 0 5 4 9 8 9 5 0 15 12 23 28 18 36 126 180
162 215 29 29 29 29 48 9 10 -11 32 -29 49 -38z m215 37 c46 -30 69 -53 85
-83 7 -16 19 -28 26 -28 22 0 32 -30 21 -60 -10 -27 -5 -60 10 -60 8 1 94 110
123 156 8 13 22 24 30 24 21 -1 53 -27 56 -46 3 -16 62 -73 77 -74 12 0 96
-64 97 -73 0 -4 -20 -35 -45 -69 -25 -34 -45 -68 -45 -75 0 -7 -4 -13 -9 -13
-9 0 -63 -72 -106 -144 -11 -18 -32 -46 -46 -63 -14 -17 -31 -44 -38 -62 -8
-17 -20 -31 -28 -31 -22 0 -93 39 -99 55 -8 19 -97 55 -138 55 -19 0 -37 4
-41 10 -3 5 6 27 20 49 14 23 25 43 25 47 0 3 14 24 31 45 33 41 31 59 -4 59
-17 0 -34 -19 -73 -82 -28 -46 -57 -84 -65 -86 -8 -1 -31 9 -50 22 -18 14 -45
33 -58 43 -14 10 -44 18 -70 19 -65 2 -66 3 -53 16 7 7 12 18 12 24 0 13 46
84 119 184 22 30 64 91 94 135 56 82 92 125 105 125 4 0 21 -9 37 -19z m7976
-38 c24 -32 47 -60 50 -63 3 -3 19 -25 34 -50 16 -25 49 -73 74 -107 77 -103
123 -183 117 -200 -5 -11 -14 -14 -40 -9 -36 7 -81 -8 -106 -35 -8 -9 -30 -24
-48 -33 -32 -17 -35 -17 -53 0 -11 10 -27 34 -36 53 -9 20 -29 54 -45 76 -16
22 -63 89 -104 149 l-76 109 28 26 c16 14 48 39 72 55 23 16 42 33 42 37 0 9
36 49 44 49 2 0 23 -26 47 -57z m-308 -93 c31 -41 71 -97 88 -125 40 -65 92
-142 121 -179 13 -16 26 -36 29 -45 4 -10 19 -34 33 -55 24 -36 25 -40 9 -52
-10 -7 -28 -10 -40 -8 -22 6 -143 -42 -143 -56 0 -4 -18 -19 -40 -34 -41 -27
-65 -26 -75 3 -5 17 -56 100 -95 156 -52 75 -151 212 -169 237 -12 14 -21 33
-21 40 0 8 35 38 78 68 77 53 83 58 118 105 11 14 26 24 34 23 8 -2 41 -37 73
-78z m-6711 -137 c-3 -16 -7 -22 -10 -15 -4 13 4 42 11 42 2 0 2 -12 -1 -27z
m4682 -89 c20 -77 20 -127 2 -163 -23 -44 -147 -154 -224 -198 -100 -58 -274
-117 -380 -129 -34 -3 -65 -10 -68 -15 -2 -4 2 -23 10 -42 13 -33 11 -82 -5
-102 -4 -6 -1 -31 8 -55 11 -29 17 -79 17 -140 1 -80 -2 -102 -22 -137 -18
-35 -20 -43 -7 -43 8 0 22 11 31 25 9 14 21 25 26 25 17 0 1 -58 -39 -143 -40
-86 -39 -86 -120 -52 -29 13 -33 17 -24 34 6 11 11 31 11 45 0 26 -9 30 -57
26 -28 -2 -28 -2 1 62 22 46 44 115 63 195 7 30 -5 63 -16 44 -6 -9 -10 -5
-15 14 -4 17 -12 25 -20 22 -9 -4 -26 13 -45 41 -16 26 -44 63 -61 83 -25 29
-30 41 -22 55 5 11 17 35 25 56 14 33 14 37 -1 51 -9 9 -39 24 -66 34 -47 18
-60 40 -21 36 63 -7 103 -18 125 -33 14 -9 60 -29 103 -44 61 -20 96 -26 165
-26 99 0 167 19 167 46 0 13 16 22 62 35 34 9 76 25 93 36 l32 18 -39 5 -38 6
45 13 c25 7 72 25 104 39 95 43 133 81 84 83 -21 1 -21 2 -3 6 11 3 40 21 64
41 l43 35 -5 71 c-3 39 -8 82 -12 96 -5 17 -5 22 3 15 6 -5 18 -38 26 -71z
m-3373 -25 c-15 -80 -10 -101 28 -129 16 -11 31 -30 34 -42 6 -22 86 -78 152
-106 17 -7 35 -22 40 -35 8 -17 31 -28 100 -48 78 -23 90 -29 96 -53 4 -14 5
-26 2 -26 -11 0 -160 64 -183 79 -14 9 -42 25 -63 35 -21 11 -49 30 -63 43
-14 13 -28 23 -31 23 -13 0 -80 66 -105 104 -38 56 -44 109 -22 186 22 79 31
60 15 -31z m-1344 19 c-3 -8 -6 -5 -6 6 -1 11 2 17 5 13 3 -3 4 -12 1 -19z
m389 -23 c-11 -8 -25 -15 -32 -15 -7 0 -14 -3 -16 -8 -1 -4 -26 -24 -53 -44
-126 -91 -245 -264 -260 -376 -4 -28 -15 -62 -25 -75 -17 -20 -19 -21 -25 -4
-14 35 1 141 27 198 28 62 146 188 216 233 22 14 43 30 47 36 3 5 13 10 21 10
8 0 25 9 37 21 22 21 53 37 72 38 6 0 1 -6 -9 -14z m-414 -37 c-7 -7 -12 -8
-12 -2 0 14 12 26 19 19 2 -3 -1 -11 -7 -17z m5809 -30 c81 -56 195 -162 226
-211 13 -22 31 -60 39 -86 14 -47 19 -143 7 -154 -10 -11 -32 26 -33 56 0 16
-24 76 -52 134 -53 107 -90 148 -243 277 -48 41 -11 30 56 -16z m325 -35 c39
-85 68 -150 77 -173 4 -8 20 -37 36 -65 16 -27 40 -70 52 -95 13 -25 35 -65
50 -90 30 -49 46 -100 33 -100 -5 0 -17 17 -27 38 -9 20 -25 51 -34 67 -9 17
-20 38 -25 48 -5 10 -17 35 -27 55 -74 147 -131 269 -131 279 0 7 -11 32 -25
57 -25 45 -29 56 -20 56 3 0 21 -35 41 -77z m-5468 47 c2 -10 -32 -32 -102
-68 -201 -102 -302 -246 -331 -472 -5 -42 -3 -48 34 -90 22 -25 41 -47 41 -50
0 -3 -15 -21 -33 -40 -39 -42 -57 -80 -57 -120 0 -16 -5 -32 -10 -35 -17 -10
-209 102 -210 122 0 17 39 42 80 50 33 6 34 7 10 14 -14 4 -46 7 -72 8 -27 1
-48 5 -48 10 0 5 20 34 45 64 25 31 45 61 45 67 0 7 25 39 55 72 55 59 68 88
40 88 -36 0 19 124 87 197 93 98 195 161 313 193 47 13 109 7 113 -10z m4942
-14 c165 -70 313 -216 334 -330 6 -29 4 -36 -9 -36 -23 0 -19 -10 25 -65 22
-27 49 -68 61 -90 12 -22 42 -62 67 -90 l45 -50 -77 -5 c-42 -3 -77 -9 -79
-15 -1 -5 16 -14 38 -21 65 -18 85 -26 85 -33 0 -3 -19 -17 -43 -30 -23 -13
-59 -37 -79 -53 -21 -16 -50 -30 -65 -31 -24 -2 -28 2 -34 33 -10 57 -25 83
-60 113 l-33 27 19 33 c10 17 30 42 42 55 13 13 22 31 19 40 -2 10 -11 50 -18
91 -20 117 -92 238 -188 318 -41 34 -109 79 -152 100 -72 34 -88 49 -71 66 17
18 97 5 173 -27z m-5638 -28 c-7 -7 -12 -8 -12 -2 0 14 12 26 19 19 2 -3 -1
-11 -7 -17z m-27 -63 c-9 -20 -19 -34 -22 -31 -4 3 2 21 12 41 25 44 30 39 10
-10z m5550 -7 c47 -23 118 -89 149 -138 40 -62 76 -172 81 -250 8 -102 -2
-116 -52 -69 -45 43 -73 59 -104 59 l-22 0 21 -23 c12 -13 22 -27 22 -31 0 -4
9 -19 20 -33 21 -27 27 -15 10 18 -6 10 -7 19 -2 19 10 0 72 -80 72 -94 0 -6
14 -27 31 -46 48 -55 65 -115 22 -78 -60 52 -166 71 -238 43 -25 -9 -52 -14
-60 -11 -8 3 -15 2 -15 -2 0 -4 -21 -31 -46 -60 -32 -36 -53 -52 -70 -52 -14
0 -27 -7 -31 -15 -3 -9 -19 -23 -36 -31 -29 -16 -31 -15 -48 7 -10 13 -19 41
-19 62 0 33 3 37 25 37 27 0 53 36 38 51 -14 14 -60 -6 -73 -31 -15 -28 -25
-25 -64 17 -19 21 -37 35 -41 31 -4 -4 1 -27 10 -53 10 -25 15 -48 12 -51 -8
-8 -76 69 -100 114 -11 20 -34 69 -50 107 -28 63 -31 80 -31 180 -1 103 1 114
29 168 16 31 32 57 36 57 4 0 5 -21 4 -47 -2 -25 -1 -52 2 -60 8 -20 23 -15
23 7 0 29 37 99 70 135 16 17 30 41 32 55 2 18 10 26 29 28 24 3 29 -3 49 -55
39 -97 70 -146 130 -203 64 -61 90 -122 90 -210 0 -40 -5 -52 -36 -84 -20 -20
-34 -39 -31 -42 7 -8 37 8 37 20 0 10 30 48 82 104 12 13 15 22 8 20 -16 -4
-40 38 -40 70 0 37 -55 134 -100 177 -55 53 -99 117 -106 155 -6 29 -6 30 32
30 56 0 118 -26 217 -91 48 -32 87 -53 87 -46 0 16 -126 134 -152 143 -16 5
-18 8 -7 15 17 10 52 3 104 -23z m-4805 13 c0 -5 -13 -14 -28 -20 -41 -17
-184 -191 -157 -191 2 0 34 26 70 58 89 79 186 133 251 139 32 3 54 1 58 -6
12 -19 -41 -112 -100 -176 -65 -71 -100 -127 -109 -175 -3 -19 -11 -47 -17
-62 -9 -23 -7 -32 14 -56 l24 -29 -2 40 c-2 56 18 136 47 179 13 20 50 66 83
102 38 43 67 89 86 133 23 57 31 68 51 68 16 0 28 -9 38 -29 8 -16 26 -40 41
-53 18 -15 34 -45 46 -83 20 -69 31 -67 36 5 l3 50 30 -50 c27 -46 30 -59 33
-155 5 -126 -12 -192 -75 -295 -39 -66 -95 -135 -108 -135 -3 0 2 17 11 38 9
20 18 43 21 50 11 26 -23 10 -50 -23 -15 -19 -34 -35 -42 -35 -8 0 -17 -12
-21 -27 -10 -51 -23 -73 -43 -73 -34 0 -51 11 -51 34 0 19 -4 21 -34 18 -35
-4 -58 11 -96 63 -18 25 -112 66 -163 73 -46 5 -124 -14 -152 -38 -11 -9 -28
-20 -37 -23 -24 -8 -11 22 27 65 17 18 39 51 50 73 19 39 19 40 23 13 5 -40
15 -35 46 22 15 28 37 59 48 70 38 35 -7 54 -60 25 -15 -8 -40 -28 -56 -45
-16 -16 -33 -30 -38 -30 -34 0 -14 171 32 263 40 82 127 180 189 212 48 25 81
32 81 16z m2060 -51 c-10 -18 -8 -20 20 -20 58 0 29 -15 -93 -49 -139 -38
-171 -54 -162 -80 3 -11 -4 -35 -16 -55 -12 -20 -19 -39 -16 -42 6 -6 96 8
167 26 58 15 201 24 245 16 36 -7 75 -40 75 -63 0 -8 -4 -11 -10 -8 -6 4 -10
-9 -10 -33 0 -50 -17 -99 -37 -106 -8 -4 -75 -1 -148 5 -96 8 -157 8 -221 0
-49 -6 -110 -11 -136 -11 -41 0 -48 3 -48 20 0 18 42 75 80 108 30 27 -49 4
-94 -27 -49 -34 -90 -81 -127 -149 -15 -26 -32 -46 -39 -44 -9 2 -11 -9 -7
-40 l6 -43 -20 24 c-11 13 -22 21 -25 18 -8 -7 34 -142 61 -199 40 -82 41
-111 5 -88 -9 6 -17 5 -22 -3 -5 -9 -10 -9 -20 1 -19 19 -28 14 -28 -13 0 -28
35 -69 51 -59 12 7 49 -24 49 -42 0 -15 -49 -32 -117 -41 -52 -6 -53 -5 -53
19 0 14 -7 31 -15 38 -20 17 -75 135 -75 163 0 20 2 19 26 -10 18 -23 34 -33
52 -33 l27 1 -22 18 c-13 11 -23 24 -23 29 0 5 -9 29 -20 53 -23 51 -26 188
-7 253 14 46 60 74 174 107 39 11 79 26 88 33 16 12 16 15 -6 50 -26 40 -26
40 -120 15 -36 -9 -64 -9 -135 2 l-89 14 80 6 c125 10 161 24 308 117 74 46
95 55 130 54 23 -1 44 -7 45 -12 7 -20 45 -6 217 75 62 30 69 30 55 5z m763
-63 c15 -6 27 -15 27 -19 0 -4 8 -8 17 -8 9 0 14 -3 10 -6 -3 -3 -41 3 -84 14
-85 22 -136 40 -114 41 8 1 11 8 8 20 -4 19 -1 18 52 -6 31 -14 68 -30 84 -36z
m-3610 16 c-8 -21 -24 -50 -34 -65 -11 -14 -19 -29 -19 -33 0 -15 -133 -275
-141 -275 -5 0 -9 3 -9 6 0 8 87 179 121 239 16 28 41 76 55 108 29 63 52 80
27 20z m2944 31 c-3 -3 -12 -4 -19 -1 -8 3 -5 6 6 6 11 1 17 -2 13 -5z m155
-139 c16 -36 -1 -52 -33 -32 -13 8 -37 18 -54 22 -29 6 -29 7 -11 21 11 8 35
14 53 14 26 0 36 -6 45 -25z m202 5 c5 -5 -9 -13 -38 -21 -25 -6 -49 -15 -52
-20 -9 -16 -24 -10 -24 10 0 45 10 54 59 47 25 -3 49 -10 55 -16z m166 -65
c194 -16 273 -50 348 -149 41 -54 33 -60 -65 -51 -97 10 -226 11 -376 4 -114
-5 -127 3 -127 77 0 24 -6 49 -14 57 -13 12 -13 17 0 35 19 27 67 42 119 37
22 -2 74 -7 115 -10z m-1525 -131 c36 -34 37 -37 29 -77 -13 -59 -34 -54 -61
13 -23 57 -29 100 -14 100 4 0 25 -16 46 -36z m1152 14 c-3 -8 -6 -5 -6 6 -1
11 2 17 5 13 3 -3 4 -12 1 -19z m1303 -11 c0 -35 -38 -119 -56 -124 -7 -2 -14
15 -19 43 -6 43 -4 49 26 80 18 19 37 34 41 34 4 0 8 -15 8 -33z m-2922 -64
c-9 -141 -89 -300 -194 -384 -46 -38 -110 -68 -141 -69 -40 0 -24 24 34 53 87
44 137 86 182 154 47 70 97 199 107 274 10 75 17 58 12 -28z m-1818 17 c19
-14 22 -22 14 -30 -9 -9 -20 -8 -43 4 -31 16 -37 27 -24 39 11 11 27 8 53 -13z
m7030 1 c0 -23 -56 -49 -72 -33 -8 8 -1 17 23 31 42 26 49 26 49 2z m-3870
-99 c0 -13 -30 -37 -68 -56 -18 -10 -41 -24 -50 -32 -9 -8 -42 -34 -72 -57
-34 -27 -67 -64 -85 -98 -24 -41 -37 -55 -57 -57 -59 -7 -115 62 -103 127 4
20 11 42 17 49 14 16 131 72 152 72 9 0 27 7 40 15 44 29 226 58 226 37z
m-904 -33 c43 -29 44 -31 38 -72 -4 -23 -8 -44 -10 -46 -13 -15 -84 91 -84
126 0 29 3 29 56 -8z m1785 2 c77 -26 181 -79 197 -98 15 -21 16 -84 1 -116
-10 -23 -57 -57 -77 -57 -6 0 -31 28 -55 63 -45 62 -139 147 -224 200 -24 15
-43 30 -43 34 0 12 145 -6 201 -26z m739 10 c0 -24 -17 -57 -53 -101 -22 -29
-29 -32 -37 -20 -5 8 -10 32 -10 52 0 32 4 39 24 44 14 3 32 14 42 25 22 24
34 24 34 0z m-4702 -83 c31 -17 75 -41 97 -52 22 -12 51 -28 65 -37 14 -9 86
-51 160 -93 162 -94 165 -96 147 -120 -12 -16 -15 -16 -57 9 -63 36 -80 46
-123 73 -51 31 -104 61 -152 85 -22 11 -49 28 -60 37 -11 10 -35 23 -52 31
-18 8 -33 17 -33 21 0 5 -6 8 -12 8 -25 1 -61 37 -55 54 8 21 8 21 75 -16z
m6896 15 c8 -19 -19 -44 -66 -64 -16 -6 -28 -15 -28 -20 0 -5 -5 -9 -12 -9
-12 0 -88 -43 -287 -162 -107 -64 -139 -77 -154 -62 -14 15 12 37 111 95 59
34 139 82 178 106 40 23 75 43 79 43 4 0 20 10 37 21 40 29 110 67 124 68 7 1
15 -7 18 -16z m-3315 -33 c82 -32 124 -55 151 -86 l25 -28 -28 18 c-16 10 -59
29 -95 43 -57 21 -85 25 -192 26 -69 1 -134 -1 -145 -4 -11 -4 -38 -10 -60
-13 -22 -4 -68 -25 -103 -47 -35 -21 -66 -39 -69 -39 -4 0 -16 -7 -27 -16 -12
-9 0 3 25 27 45 43 63 54 164 101 91 41 268 50 354 18z m1330 -52 c-4 -71 -3
-73 19 -70 33 5 27 -14 -15 -43 -48 -32 -53 -32 -53 5 l0 30 -37 -42 c-40 -44
-144 -98 -188 -98 -35 0 -23 16 22 31 20 6 44 17 52 23 41 30 131 132 147 164
16 35 42 72 51 72 3 0 3 -33 2 -72z m-3950 37 c51 -25 71 -58 71 -115 0 -50
-67 -168 -172 -302 -27 -33 -48 -63 -48 -67 0 -3 -14 -21 -31 -39 -17 -19 -28
-39 -25 -47 8 -21 23 -18 36 6 6 11 52 68 102 126 101 117 149 191 173 264
l17 49 46 0 c51 -1 89 -24 112 -70 12 -23 12 -24 -3 -11 -27 21 -20 1 8 -25
21 -19 25 -32 25 -79 0 -66 -27 -139 -100 -275 -28 -50 -50 -93 -50 -95 0 -3
9 -3 20 -2 15 3 36 35 79 123 73 148 91 201 91 264 0 43 3 50 19 50 11 0 33
-8 49 -17 33 -19 60 -53 41 -53 -6 0 3 -16 20 -35 29 -34 31 -39 25 -93 -4
-31 -17 -81 -30 -110 -13 -29 -24 -54 -24 -57 0 -2 -18 -43 -41 -90 -22 -48
-38 -93 -35 -102 9 -23 25 -6 32 35 3 20 26 71 50 112 55 96 74 150 74 211 0
26 5 51 10 54 6 4 25 -8 42 -27 21 -22 33 -29 36 -20 5 17 -27 52 -82 89 -84
57 -85 78 -8 118 62 32 161 127 195 187 11 21 24 38 29 38 12 0 48 -38 48 -50
0 -19 90 -108 144 -143 73 -48 149 -76 262 -96 55 -9 99 -21 99 -27 -1 -5 -4
-37 -9 -72 -10 -76 -7 -74 -176 -140 -216 -85 -449 -136 -470 -103 -4 7 -5 43
-2 80 2 40 0 71 -6 74 -6 4 -8 -9 -5 -36 6 -55 -29 -191 -72 -282 -38 -79 -49
-94 -87 -119 -14 -9 -41 -41 -59 -70 -36 -60 -78 -86 -139 -86 -27 0 -47 7
-60 20 -24 24 -25 34 -5 63 8 12 21 43 30 67 l15 45 -21 -25 c-34 -43 -81 -90
-89 -90 -4 0 -10 -10 -13 -21 -5 -19 -11 -21 -57 -17 -104 10 -142 95 -86 191
22 37 51 117 42 117 -1 0 -21 -27 -45 -60 -24 -33 -48 -60 -53 -60 -15 0 -38
-27 -38 -44 0 -12 -10 -16 -37 -16 -41 0 -123 36 -123 54 0 6 -13 26 -29 43
-16 18 -35 45 -42 62 -13 29 -14 29 -74 25 -49 -4 -68 -1 -105 18 -25 13 -54
37 -66 55 -26 38 -21 78 19 162 14 29 23 59 21 66 -3 7 -1 16 5 20 6 3 11 14
11 23 0 18 152 205 243 301 59 61 134 101 190 101 21 0 60 -11 86 -25z m1022
-79 c54 -83 84 -112 159 -155 52 -29 53 -31 24 -31 -44 0 -129 46 -167 91 -41
47 -48 49 -40 9 3 -16 3 -30 -1 -30 -13 0 -69 39 -83 59 -14 21 -14 22 12 15
l27 -7 -3 64 c-3 88 -1 99 14 75 7 -10 33 -51 58 -90z m4064 74 c97 -44 345
-337 345 -407 0 -10 16 -51 35 -92 19 -40 35 -84 35 -97 0 -35 -78 -111 -123
-119 -48 -9 -71 -3 -76 20 -2 11 -23 40 -47 65 -23 25 -52 56 -63 70 -11 14
-20 20 -21 14 0 -22 51 -139 65 -147 13 -7 13 -12 0 -43 -21 -51 -89 -129
-127 -147 -37 -18 -103 -18 -103 -1 0 15 -101 124 -115 124 -5 0 -10 9 -10 20
0 11 -5 20 -10 20 -13 0 -3 -64 16 -102 8 -15 23 -32 34 -38 35 -19 21 -88
-29 -142 -18 -21 -34 -28 -62 -28 -32 0 -45 8 -98 63 -50 51 -63 59 -71 47
-14 -21 -13 -24 15 -54 31 -33 32 -52 3 -77 -53 -43 -134 -16 -193 67 -22 31
-51 64 -65 74 -29 20 -112 167 -131 229 -13 43 -23 51 -33 26 -8 -21 -80 -19
-164 4 -105 29 -450 206 -477 244 -8 12 -15 43 -15 69 0 54 -11 48 120 67 145
22 288 111 381 236 12 17 26 34 30 39 4 4 23 -16 42 -45 49 -77 115 -143 172
-172 28 -14 59 -32 69 -40 19 -14 19 -15 -1 -43 -12 -16 -46 -47 -76 -68 -42
-30 -58 -50 -71 -85 -18 -50 -22 -171 -6 -171 6 0 10 33 10 79 0 79 0 80 40
121 22 23 44 39 50 35 5 -3 10 -28 10 -55 0 -59 26 -131 79 -222 22 -37 42
-81 46 -97 6 -31 21 -48 32 -38 5 6 -24 94 -38 112 -4 6 -26 52 -48 103 -52
118 -58 197 -19 240 14 15 24 32 22 37 -6 16 48 64 76 67 23 3 25 0 32 -62 8
-78 19 -110 93 -262 43 -90 61 -118 76 -118 24 0 24 9 2 40 -29 42 -82 148
-108 217 -32 84 -34 164 -5 193 12 12 18 25 15 29 -16 28 43 74 106 84 31 4
38 2 47 -16 69 -151 88 -180 186 -295 58 -68 106 -128 106 -133 0 -5 9 -9 20
-9 11 0 20 4 20 8 0 5 -47 71 -105 148 -177 234 -211 326 -145 389 33 32 111
56 155 49 17 -3 48 -14 70 -24z m-816 -67 c55 -52 139 -110 181 -124 29 -11
39 -32 21 -44 -26 -15 -171 81 -209 138 -15 23 -33 48 -39 55 -7 7 -13 21 -12
30 0 13 2 14 6 3 3 -8 26 -34 52 -58z m-1792 -17 c15 -58 36 -92 63 -101 32
-10 14 -23 -22 -16 -26 5 -37 15 -52 46 l-20 39 -12 -30 c-19 -46 -65 -72 -95
-53 -9 5 -5 10 15 15 31 7 65 68 66 116 0 25 14 39 35 34 6 -1 15 -24 22 -50z
m-151 32 c13 -20 -43 -58 -87 -58 -21 0 -39 4 -39 9 0 16 72 55 112 60 4 1 10
-4 14 -11z m326 -7 c24 -11 51 -22 61 -25 37 -12 15 -26 -42 -26 -44 0 -65 5
-85 21 -58 45 -13 66 66 30z m-1414 -29 c22 -14 33 -72 13 -72 -12 0 -71 74
-71 89 0 12 23 5 58 -17z m-2305 1 c-7 -20 -142 -223 -159 -238 -6 -5 -19 -23
-29 -40 -32 -53 -169 -235 -173 -230 -4 4 46 78 82 122 38 46 181 257 211 313
18 31 64 90 72 90 1 0 0 -8 -4 -17z m4761 -22 c-22 -34 -51 -58 -59 -49 -2 2
0 17 2 35 4 23 12 35 32 42 48 17 52 12 25 -28z m2369 -101 c99 -144 140 -213
110 -187 -21 19 -173 240 -173 253 0 4 -10 19 -22 32 -15 16 -18 23 -8 20 8
-2 50 -56 93 -118z m-4033 29 c-7 -11 -14 -18 -17 -15 -3 3 0 12 7 21 18 21
23 19 10 -6z m235 -69 c21 -16 41 -30 45 -30 28 0 44 -175 16 -186 -16 -6 -69
19 -99 47 -11 10 -36 25 -56 35 -20 9 -49 22 -65 30 -16 8 -35 14 -43 14 -24
0 -73 30 -73 44 0 35 35 56 105 65 119 15 129 13 170 -19z m577 15 c21 -4 42
-13 49 -21 9 -11 4 -17 -27 -30 -78 -32 -106 -47 -132 -73 -15 -15 -55 -48
-90 -75 -75 -57 -84 -54 -90 33 -5 73 18 118 81 156 36 21 51 24 107 21 36 -2
82 -7 102 -11z m-3431 -35 c19 -15 20 -19 8 -20 -9 0 -27 9 -40 20 -19 15 -20
19 -8 20 9 0 27 -9 40 -20z m6265 -18 c-16 -31 -75 -86 -83 -78 -3 3 15 26 41
51 25 26 46 51 46 57 0 6 3 9 6 6 3 -4 -1 -20 -10 -36z m-171 18 c-3 -5 -12
-10 -18 -10 -7 0 -6 4 3 10 19 12 23 12 15 0z m-6186 -109 c-14 -4 -82 65 -93
93 -4 11 18 -5 49 -35 30 -29 50 -56 44 -58z m3089 84 c-3 -3 -9 2 -12 12 -6
14 -5 15 5 6 7 -7 10 -15 7 -18z m87 -5 c-11 -21 -15 -61 -15 -147 0 -80 -3
-113 -10 -103 -13 20 -13 133 1 206 12 65 16 74 30 74 5 0 3 -13 -6 -30z
m1026 -23 c-11 -28 -35 -36 -47 -15 -4 6 5 21 22 35 32 25 40 19 25 -20z
m-2107 -13 c9 -23 7 -54 -3 -54 -7 0 -31 51 -31 66 0 12 29 1 34 -12z m1015
-106 c1 -48 -3 -90 -9 -93 -6 -4 -10 34 -9 107 0 72 3 106 9 93 5 -11 9 -59 9
-107z m-3182 -63 c18 -27 54 -75 78 -105 56 -69 59 -87 8 -61 -78 40 -143 140
-157 241 l-6 45 22 -35 c11 -19 36 -57 55 -85z m2286 98 c-7 -2 -19 -2 -25 0
-7 3 -2 5 12 5 14 0 19 -2 13 -5z m4155 -132 c-24 -46 -47 -74 -85 -102 -82
-61 -100 -48 -34 24 45 49 126 166 138 199 7 20 8 18 11 -17 3 -29 -5 -55 -30
-104z m-2405 98 c89 -31 366 -163 418 -200 45 -31 250 -130 313 -150 38 -13
104 -22 176 -26 81 -4 120 -10 132 -21 30 -25 10 -32 -90 -32 -107 0 -190 16
-285 56 -75 31 -216 101 -237 118 -8 7 -40 25 -70 41 -30 15 -89 46 -130 67
-70 38 -177 81 -280 115 -69 22 -241 12 -300 -17 -24 -13 -63 -31 -86 -41 -24
-10 -60 -33 -81 -51 -21 -19 -55 -46 -75 -61 -62 -45 -52 -57 47 -57 96 0 217
-20 212 -34 -2 -5 -20 -23 -40 -39 -56 -46 -119 -48 -202 -8 -54 27 -65 36
-65 57 0 20 -4 24 -19 19 -12 -4 -21 0 -25 12 -16 41 213 215 347 263 36 13
82 19 150 19 86 1 111 -3 190 -30z m2947 -11 c0 -6 14 -28 31 -49 17 -21 27
-39 22 -39 -12 0 -83 94 -83 110 0 10 3 10 15 0 8 -7 15 -17 15 -22z m-4515
-47 c0 -19 -12 -26 -95 -53 -52 -16 -117 -40 -145 -53 -27 -13 -61 -25 -75
-28 -22 -5 -195 -73 -245 -97 -35 -17 -168 -61 -230 -76 -90 -23 -160 -33
-250 -35 -68 -2 -80 0 -83 15 -7 35 17 46 97 46 121 1 352 57 498 121 24 11
46 19 49 19 3 0 20 6 37 14 127 58 410 158 432 152 6 -1 10 -13 10 -25z m337
-11 c23 -11 46 -20 51 -20 17 0 132 -75 172 -112 22 -20 53 -47 70 -60 16 -13
39 -33 50 -44 44 -47 149 -126 206 -154 189 -94 344 -80 469 41 70 69 78 66
18 -7 -54 -65 -90 -94 -155 -123 -96 -44 -239 -19 -363 63 -45 30 -137 104
-176 141 -22 21 -91 79 -136 114 -14 12 -82 50 -150 85 -72 37 -124 70 -126
79 -5 23 19 22 70 -3z m938 -59 c0 -45 -4 -60 -17 -65 -27 -11 -195 -8 -206 3
-7 7 1 19 23 38 44 38 56 44 120 64 81 26 80 27 80 -40z m342 32 c7 -10 22
-23 33 -29 11 -7 20 -21 19 -33 -1 -24 18 -28 36 -6 16 19 44 19 60 0 17 -21
3 -70 -23 -82 -34 -15 -266 -77 -271 -72 -2 2 2 35 9 72 10 54 20 76 46 104
22 23 30 37 21 40 -21 8 -2 23 28 23 16 0 35 -8 42 -17z m-1320 -44 c9 -5 39
-14 67 -20 32 -7 51 -16 51 -25 0 -11 -20 -14 -95 -14 -93 0 -95 1 -101 25
-13 52 16 65 78 34z m-317 -46 c25 -25 35 -44 31 -57 -3 -11 4 -32 15 -47 21
-30 25 -59 8 -59 -6 0 -31 9 -57 19 -26 11 -67 22 -92 25 -62 9 -182 46 -199
61 -20 19 -8 31 46 45 27 7 55 14 64 16 11 3 31 -13 57 -46 27 -34 43 -47 48
-38 4 6 2 14 -4 16 -17 5 -45 61 -38 77 4 13 27 20 68 24 9 0 33 -16 53 -36z
m1825 -19 c0 -8 -5 -12 -10 -9 -6 4 -8 11 -5 16 9 14 15 11 15 -7z m-1730 -71
c0 -26 63 -130 103 -171 51 -52 84 -70 162 -86 99 -21 157 -9 249 52 84 55 91
58 102 41 5 -9 -48 -69 -61 -69 -3 0 -27 -14 -54 -30 -37 -23 -69 -33 -131
-41 -95 -12 -128 -7 -187 27 -87 50 -193 195 -195 266 -1 16 -5 31 -10 34 -4
3 -8 10 -8 17 0 15 29 -25 30 -40z m-461 -26 c-6 -12 -18 -30 -26 -39 -9 -9
-16 -32 -17 -49 -1 -23 -7 -33 -20 -35 -26 -4 -29 -10 -16 -34 10 -19 9 -22
-10 -27 -17 -4 -20 -11 -16 -29 5 -19 2 -24 -14 -24 -17 0 -20 -7 -20 -38 0
-30 -5 -41 -22 -50 -47 -22 -135 -50 -183 -56 -27 -4 -72 -14 -99 -22 -67 -19
-150 -18 -182 3 -21 13 -54 16 -190 17 -90 0 -164 3 -164 6 0 4 14 19 31 36
17 16 38 43 46 59 14 26 72 101 110 142 8 9 45 13 120 13 142 0 291 34 477
107 50 19 102 35 115 35 14 0 31 7 39 14 10 10 18 11 33 4 16 -9 17 -14 8 -33z
m944 28 c28 -20 17 -44 -33 -72 -55 -31 -164 -36 -205 -9 -29 19 -60 64 -51
73 8 8 125 20 211 21 37 1 67 -4 78 -13z m-2901 -58 c31 -25 90 -61 130 -81
66 -32 103 -44 191 -61 75 -15 -17 -51 -104 -41 -106 12 -227 98 -279 198 -11
21 -20 40 -20 44 0 7 0 7 82 -59z m6217 16 c-44 -72 -74 -104 -138 -144 -77
-48 -99 -53 -196 -44 -81 7 -97 21 -37 30 114 18 259 87 335 159 48 47 65 46
36 -1z m-7671 -8 c20 -19 46 -41 57 -50 17 -13 14 -13 -19 1 -69 28 -110 59
-100 76 9 15 24 8 62 -27z m9032 -44 c0 -5 -25 -19 -55 -32 -30 -12 -55 -26
-55 -31 0 -4 -8 -8 -17 -8 -20 0 40 43 90 65 39 17 37 17 37 6z m-8870 -61
c19 -11 31 -19 25 -19 -5 0 -26 8 -45 19 -19 11 -30 19 -25 19 6 0 26 -8 45
-19z m3933 -165 c26 -10 47 -21 47 -26 0 -5 11 -9 23 -9 27 0 91 -46 105 -75
18 -39 3 -81 -38 -104 -52 -29 -107 -27 -150 4 -19 14 -43 25 -54 25 -23 0
-94 46 -105 69 -4 9 -9 37 -10 62 -2 39 2 50 21 64 28 19 90 16 161 -10z
m4087 -1220 c11 -13 9 -92 -2 -98 -1 -1 -25 -18 -53 -37 l-50 -35 -120 -1
c-66 -1 -142 1 -170 5 l-50 6 2 49 c2 52 8 60 87 104 37 20 54 22 192 22 123
0 154 -3 164 -15z m-6717 -210 c20 -8 57 -15 82 -15 l45 0 1 -227 c1 -126 2
-244 2 -263 0 -19 -1 -176 -1 -347 l-2 -313 -79 0 c-52 0 -82 4 -87 12 -4 7
-9 197 -11 423 -2 225 -6 416 -8 423 -3 7 -21 12 -44 12 -30 0 -40 -4 -44 -20
-5 -18 -14 -20 -84 -20 -88 0 -103 8 -103 54 0 43 -44 86 -87 86 -41 0 -53 25
-53 110 0 70 11 80 89 80 68 0 98 -13 155 -68 27 -26 50 -42 52 -37 18 45 44
83 73 102 40 27 56 28 104 8z m-1208 -21 c14 -14 16 -57 15 -347 0 -183 -3
-398 -7 -478 l-6 -147 -48 5 c-48 4 -49 3 -49 -24 0 -23 8 -32 41 -47 35 -17
42 -18 50 -5 6 9 9 -4 7 -41 l-3 -55 -69 -8 c-52 -5 -73 -4 -83 6 -19 18 -20
1137 -1 1149 24 15 135 9 153 -8z m344 6 c19 -9 21 -20 21 -90 0 -44 -3 -80
-7 -81 -63 -4 -291 -5 -300 -2 -9 4 -13 30 -13 88 l0 84 43 3 c128 9 237 9
256 -2z m361 -5 c8 -10 11 -40 8 -89 -3 -69 -6 -78 -36 -109 -29 -30 -32 -39
-32 -93 0 -53 3 -63 28 -86 24 -23 38 -26 124 -31 110 -6 125 -12 191 -76 78
-74 77 -71 71 -308 l-7 -208 -58 -55 c-33 -31 -59 -61 -59 -68 0 -15 -37 -24
-81 -20 l-34 3 -3 64 c-3 60 -1 68 34 118 l36 53 -4 125 c-4 121 -5 125 -33
155 -26 27 -35 30 -90 30 -131 0 -149 7 -228 80 l-72 68 0 151 0 152 81 79
c70 69 86 80 116 80 20 0 41 -7 48 -15z m2045 4 c11 0 65 3 121 7 116 8 130 3
210 -73 77 -72 84 -92 84 -233 0 -111 -2 -123 -25 -160 -31 -49 -31 -55 0 -92
25 -30 25 -32 21 -176 -2 -81 -5 -207 -5 -280 l-1 -132 -27 -11 c-16 -6 -52
-8 -84 -4 l-56 7 -6 246 -7 246 -27 28 c-24 25 -33 28 -94 28 -45 0 -70 5 -78
14 -7 9 -11 42 -9 88 l3 73 35 3 c142 10 170 30 170 122 0 48 -5 64 -24 87
-13 15 -27 26 -29 23 -3 -3 -1 -25 3 -50 9 -46 2 -67 -35 -104 -19 -19 -74
-14 -113 11 -13 8 -26 12 -29 9 -3 -2 -7 -188 -10 -413 -3 -224 -7 -410 -10
-413 -8 -8 -151 -6 -160 3 -4 5 -8 264 -8 575 l0 567 40 6 c22 4 60 5 85 3 25
-2 54 -4 65 -5z m1020 2 l90 -6 -3 -75 c-1 -41 -4 -81 -7 -87 -6 -18 -565 -19
-583 -1 -7 7 -12 41 -12 85 l0 72 33 10 c36 10 346 12 482 2z m710 -86 l0 -90
-147 -1 c-109 -1 -151 2 -158 11 -6 8 -10 45 -8 86 4 89 -1 87 183 85 l130 -1
0 -90z m673 83 c9 -9 12 -126 11 -472 -1 -254 -4 -510 -8 -571 l-6 -110 -69
-3 c-38 -2 -73 1 -79 7 -6 6 -11 230 -14 575 l-5 566 23 9 c35 14 133 13 147
-1z m346 6 c19 -7 30 -79 22 -139 l-7 -45 -148 0 c-101 0 -151 4 -159 12 -13
13 -16 136 -4 155 7 11 53 16 219 21 34 1 68 -1 77 -4z m998 -31 c24 -21 60
-57 81 -81 l37 -43 0 -495 c0 -462 -1 -495 -17 -502 -23 -9 -139 -9 -148 0 -4
3 -6 88 -5 187 0 138 -3 189 -14 214 -7 17 -16 40 -20 50 -7 21 -36 23 -36 2
0 -7 7 -18 16 -23 22 -13 -80 -23 -126 -14 l-35 8 -1 69 c0 39 2 76 4 83 3 8
30 12 87 12 46 0 90 3 99 6 14 5 16 29 16 163 -1 142 -2 158 -21 181 -17 20
-32 25 -83 28 -74 5 -98 -5 -120 -52 -14 -30 -16 -88 -16 -469 0 -345 -3 -437
-13 -445 -11 -10 -144 -6 -155 3 -2 2 -6 222 -9 489 l-6 486 26 37 c41 59 126
127 167 134 19 3 83 7 142 8 l107 1 43 -37z m1363 19 c16 -8 55 -41 86 -73
l57 -57 4 -79 c6 -140 -2 -943 -10 -943 -4 0 -7 89 -7 197 0 187 -6 253 -23
253 -4 0 -5 -23 -4 -51 2 -27 -2 -64 -9 -82 -19 -48 -53 -97 -66 -97 -16 0
-25 -52 -21 -120 3 -49 6 -56 28 -61 44 -11 70 -21 70 -29 0 -7 -11 -7 -97 -2
l-33 2 0 191 c0 188 -7 237 -33 223 -9 -5 -9 -4 0 6 15 16 0 50 -22 50 -18 0
-20 -21 -3 -38 9 -9 -6 -12 -70 -12 l-82 0 0 85 0 85 94 0 c71 0 97 4 106 15
9 11 11 54 8 157 -3 133 -5 145 -28 176 -22 30 -28 32 -83 32 -61 0 -109 -19
-124 -49 -4 -9 -9 -219 -11 -468 -2 -336 -6 -452 -15 -455 -7 -3 -45 -3 -84 0
l-73 4 0 212 c0 116 -3 317 -7 447 -3 131 -2 262 1 292 7 51 12 59 76 123 38
38 79 72 92 76 45 13 251 6 283 -10z m-6225 -16 c14 -12 47 -46 74 -74 l50
-52 3 -136 c3 -121 1 -139 -16 -167 -23 -37 -106 -118 -138 -135 -26 -14 -202
-16 -223 -2 -17 11 -28 146 -12 162 5 5 43 12 82 13 102 5 120 23 120 120 0
92 -11 103 -122 118 l-83 12 -3 69 c-2 38 -1 75 2 83 4 10 33 13 123 13 109
-1 120 -2 143 -24z m468 -63 c3 -82 3 -82 -33 -118 l-35 -37 0 -338 c0 -325 1
-338 21 -363 11 -15 39 -32 62 -39 23 -7 45 -17 49 -23 10 -14 10 -133 0 -139
-5 -3 -31 -8 -58 -11 l-50 -7 -1 44 c-1 87 -5 121 -11 111 -8 -13 -52 2 -52
17 0 18 -22 10 -27 -10 -3 -11 -9 -20 -13 -20 -4 0 -10 9 -13 20 -3 11 -12 20
-21 20 -26 0 -8 -50 27 -80 88 -74 103 -89 82 -90 -11 0 -52 31 -95 72 l-74
71 -4 418 c-2 229 0 424 4 432 5 9 40 48 78 87 68 70 70 71 115 68 l46 -3 3
-82z m280 14 c51 -53 72 -83 76 -108 4 -19 3 -213 -1 -432 l-8 -397 -73 -71
c-60 -59 -78 -71 -107 -72 -19 -1 -39 3 -44 9 -5 5 -11 38 -12 74 -3 62 -1 67
35 115 l39 50 -7 185 c-3 102 -6 251 -6 332 0 143 -1 147 -26 177 -19 23 -34
31 -58 31 -18 0 -37 5 -44 12 -13 13 -17 149 -5 161 3 4 43 7 88 7 l82 0 71
-73z m1752 -422 l0 -496 -20 11 c-12 6 -35 10 -53 8 -24 -2 -33 -8 -35 -26 -2
-14 3 -24 15 -29 10 -3 26 -13 36 -21 13 -12 20 -13 29 -4 22 22 28 13 28 -38
0 -61 -13 -70 -104 -70 -36 0 -66 1 -66 3 -5 51 -11 1130 -7 1141 5 13 23 16
92 16 l85 0 0 -495z m2828 409 c3 -80 3 -80 -33 -117 l-35 -36 0 -336 c0 -345
1 -357 41 -400 19 -21 34 -130 23 -160 -7 -18 -65 -20 -96 -4 -11 6 -48 38
-82 70 l-61 59 -3 432 -3 431 74 74 c74 74 75 74 123 71 l49 -3 3 -81z m281
12 l72 -75 -3 -83 -3 -83 -65 -3 c-95 -4 -110 1 -110 42 0 42 -42 96 -73 96
-63 1 -67 6 -67 96 l0 84 88 0 89 0 72 -74z m1111 -16 c0 -79 -2 -91 -20 -100
-47 -25 -50 -47 -50 -400 l0 -332 29 -28 c16 -16 41 -32 57 -35 56 -13 55 -10
52 -87 -3 -72 -4 -73 -32 -78 -16 -3 -53 -3 -82 -2 -51 4 -56 7 -124 74 -38
39 -70 71 -71 72 0 1 -3 192 -6 426 l-5 425 75 78 c75 76 77 77 127 77 l50 0
0 -90z m278 18 l72 -71 0 -423 0 -423 -43 -48 c-106 -119 -103 -117 -169 -114
l-28 1 0 79 c0 70 3 81 26 106 14 15 29 37 33 49 4 11 6 169 3 351 l-5 329
-28 28 c-17 18 -38 28 -56 28 -16 0 -34 5 -41 12 -13 13 -17 149 -5 161 3 4
43 7 87 7 l81 0 73 -72z m-4990 -605 l-3 -478 -65 -3 c-95 -4 -101 3 -101 116
-1 52 1 96 4 99 3 2 26 -4 51 -16 25 -11 46 -18 46 -15 0 3 -12 26 -26 52 -22
39 -25 55 -21 94 5 40 3 49 -12 58 -14 7 -20 6 -24 -3 -5 -14 0 -61 10 -87 8
-19 4 -42 -10 -58 -8 -11 -12 -11 -18 0 -11 16 -11 679 -1 694 11 18 33 22
105 23 l67 1 -2 -477z m-3434 261 c13 -5 16 -22 16 -85 0 -94 -4 -97 -112 -91
l-68 4 0 83 c0 57 4 85 13 88 18 8 133 8 151 1z m4120 -7 c14 -10 16 -26 14
-92 l-3 -80 -73 -3 c-46 -2 -79 2 -88 9 -9 8 -14 33 -14 78 0 69 5 84 30 94
28 11 116 7 134 -6z m1030 7 c13 -5 16 -23 16 -90 l0 -85 -87 3 c-101 3 -99 1
-88 104 6 54 10 63 28 67 36 7 114 7 131 1z m-4718 -402 c1 -103 3 -115 24
-137 15 -16 36 -25 64 -27 l41 -3 0 -85 0 -85 -70 3 c-83 4 -114 20 -185 100
l-50 56 0 141 c0 78 3 145 7 149 4 4 43 5 88 4 l80 -3 1 -113z m6664 -108 l0
-86 -69 -69 -68 -68 -84 -3 -84 -3 -3 79 c-3 86 2 96 50 96 14 0 34 3 43 6 18
7 55 75 55 102 0 29 8 32 87 32 l73 0 0 -86z m640 -44 c12 -23 -4 -29 -17 -6
-4 7 -15 16 -23 19 -10 4 -8 6 7 6 13 1 27 -8 33 -19z m-7840 -19 c0 -11 -39
-25 -47 -18 -3 3 -2 10 2 16 8 13 45 15 45 2z m240 -1 c11 -7 14 -25 12 -77
-2 -37 -8 -72 -13 -77 -13 -14 -239 -20 -271 -7 -25 9 -28 15 -28 60 0 39 4
53 19 60 16 9 20 7 25 -14 6 -22 9 -24 26 -15 21 11 27 45 10 55 -28 17 0 24
98 24 59 0 114 -4 122 -9z m3880 1 c0 -6 -4 -12 -9 -15 -5 -3 -11 -15 -14 -27
-3 -11 -3 -18 0 -15 3 3 12 -2 20 -10 9 -8 20 -13 27 -11 15 5 20 47 7 60 -6
6 -11 14 -11 18 0 4 53 7 118 6 l117 -2 3 -83 c2 -61 -1 -84 -10 -87 -8 -3
-77 -2 -153 2 l-140 8 -3 69 c-2 38 -1 75 2 83 6 15 46 18 46 4z m1018 -10
c-9 -15 -9 -25 0 -45 6 -14 16 -26 22 -26 16 0 29 43 18 63 -7 15 -4 17 27 17
28 0 35 -4 35 -20 0 -13 10 -22 33 -28 17 -5 35 -7 40 -5 12 7 8 23 -6 23 -8
0 -22 9 -32 20 l-19 21 75 -3 74 -3 3 -79 c2 -44 -1 -83 -5 -87 -4 -4 -74 -5
-155 -2 l-148 6 0 64 c0 69 12 103 35 103 12 0 13 -4 3 -19z m1830 -193 c7 -7
12 -42 12 -86 0 -65 -4 -83 -37 -148 l-37 -74 -48 0 -48 0 0 148 c0 102 4 152
12 160 7 7 39 12 73 12 34 0 66 -5 73 -12z"/>
<path d="M4636 8755 c-12 -12 -20 -13 -35 -5 -11 5 -35 10 -53 10 l-33 -1 40
-24 c23 -15 55 -25 77 -25 29 0 38 -5 43 -21 5 -14 2 -25 -6 -30 -20 -12 -23
-12 -54 13 -15 12 -39 23 -54 25 -67 8 -102 16 -107 24 -11 19 -56 8 -85 -20
l-29 -29 58 -6 c31 -3 71 -7 87 -9 17 -1 43 -12 59 -25 17 -13 37 -20 47 -17
10 3 28 -1 41 -9 32 -21 87 -25 125 -9 18 7 46 13 62 13 17 0 42 11 58 24 16
13 40 24 53 24 46 1 130 15 130 21 0 13 -40 51 -53 51 -7 0 -43 -9 -82 -20
-38 -10 -73 -16 -77 -14 -5 3 -22 -6 -39 -20 -33 -28 -38 -30 -57 -17 -25 15
-10 46 23 46 17 1 56 14 89 30 54 28 56 30 30 33 -16 2 -46 -2 -67 -9 -30 -10
-43 -10 -58 -1 -28 18 -114 15 -133 -3z"/>
<path d="M4286 8581 c-3 -5 -23 -12 -43 -16 -35 -6 -37 -8 -18 -21 26 -19 95
-19 95 1 0 8 8 15 18 16 9 0 35 6 57 14 l40 13 -72 1 c-39 1 -74 -3 -77 -8z"/>
<path d="M5010 8581 c0 -5 18 -12 39 -16 22 -4 42 -13 45 -21 7 -17 54 -18 93
-2 24 10 25 12 8 15 -11 2 -37 11 -58 19 -42 16 -127 19 -127 5z"/>
<path d="M4500 8553 c1 -15 105 -73 130 -73 24 0 59 16 50 22 -3 2 -25 14 -49
27 -32 18 -45 20 -51 11 -6 -9 -14 -8 -38 4 -35 18 -42 19 -42 9z"/>
<path d="M4773 8527 c-18 -12 -31 -26 -29 -32 7 -26 88 -12 128 23 23 19 13
35 -14 21 -14 -8 -23 -8 -31 0 -14 14 -15 14 -54 -12z"/>
<path d="M3995 8460 c-9 -16 -21 -30 -28 -30 -7 0 -19 -16 -26 -35 -6 -19 -22
-43 -35 -53 -29 -22 -52 -66 -61 -115 -8 -41 8 -52 20 -14 6 19 8 18 14 -16 5
-20 11 -40 14 -43 8 -8 47 71 47 95 0 20 11 48 51 137 21 45 35 104 26 104 -4
0 -13 -13 -22 -30z"/>
<path d="M5405 8445 c4 -22 13 -51 20 -65 17 -34 36 -88 44 -130 10 -47 40
-102 51 -95 6 4 10 19 10 36 0 33 7 36 26 12 12 -17 13 -16 13 7 1 35 -33 106
-72 151 -17 21 -40 48 -50 61 -51 68 -49 67 -42 23z"/>
<path d="M4390 8463 c0 -13 57 -53 75 -53 22 0 77 -30 92 -49 11 -14 12 -14
13 3 0 32 -49 76 -85 76 -17 0 -35 4 -40 9 -15 13 -55 23 -55 14z"/>
<path d="M4036 8444 c-3 -9 -6 -25 -6 -36 0 -17 3 -18 15 -8 16 13 21 60 6 60
-5 0 -12 -7 -15 -16z"/>
<path d="M4150 8441 c0 -35 69 -67 85 -41 3 6 -4 14 -17 19 -13 5 -30 16 -37
25 -18 22 -31 20 -31 -3z"/>
<path d="M4976 8453 c-4 -4 -19 -8 -34 -9 -15 -1 -32 -2 -38 -3 -15 -1 -68
-71 -60 -78 3 -4 14 1 24 10 10 10 41 24 69 32 27 8 58 24 68 35 18 19 17 20
-2 20 -11 0 -23 -3 -27 -7z"/>
<path d="M5240 8450 c0 -5 -14 -17 -31 -25 -25 -14 -33 -14 -46 -3 -10 8 -43
13 -85 13 -57 0 -69 -3 -74 -18 -8 -26 2 -32 30 -18 19 11 41 11 107 2 l84
-12 23 26 c12 15 20 31 17 36 -8 12 -25 12 -25 -1z"/>
<path d="M5362 8423 c2 -14 8 -28 14 -30 7 -2 9 8 6 27 -5 37 -25 40 -20 3z"/>
<path d="M4260 8424 c-16 -19 4 -27 51 -19 25 4 52 2 70 -5 34 -15 45 -9 31
16 -12 21 -136 28 -152 8z"/>
<path d="M3970 8255 c-6 -19 -10 -45 -8 -57 l4 -23 11 25 c6 14 14 40 18 58 9
44 -10 42 -25 -3z"/>
<path d="M5410 8282 c0 -4 6 -27 14 -52 11 -38 14 -41 20 -23 9 28 -2 70 -20
77 -8 3 -14 2 -14 -2z"/>
<path d="M4045 8237 c-5 -25 -4 -42 4 -50 6 -6 11 -30 11 -54 0 -47 6 -52 26
-25 18 23 18 78 0 85 -7 3 -18 23 -23 44 l-10 38 -8 -38z"/>
<path d="M5357 8253 c-4 -3 -7 -15 -7 -26 0 -10 -9 -21 -20 -24 -26 -7 -27
-51 -3 -96 l18 -32 7 50 c22 146 22 146 5 128z"/>
<path d="M4140 8242 c0 -12 39 -46 45 -41 6 7 -24 49 -36 49 -5 0 -9 -4 -9 -8z"/>
<path d="M5242 8229 c-7 -12 -12 -23 -10 -25 6 -6 48 26 48 37 0 17 -25 9 -38
-12z"/>
<path d="M3822 8149 c-13 -16 -21 -33 -17 -38 3 -6 -1 -27 -10 -47 -20 -48
-11 -55 25 -18 22 22 29 40 31 76 2 26 1 49 -2 51 -2 3 -14 -8 -27 -24z"/>
<path d="M3988 8138 c-25 -49 -32 -152 -12 -169 16 -13 26 18 29 86 2 28 6 67
10 88 9 49 1 47 -27 -5z"/>
<path d="M5405 8094 c3 -91 12 -124 30 -124 23 0 13 128 -13 169 l-21 34 4
-79z"/>
<path d="M5562 8121 c-1 -41 3 -53 28 -76 37 -35 46 -28 26 19 -8 20 -13 42
-10 49 4 12 -26 57 -38 57 -3 0 -5 -22 -6 -49z"/>
<path d="M5480 8110 c-13 -8 -12 -13 4 -42 14 -22 16 -33 8 -36 -18 -6 -14
-37 8 -76 14 -22 17 -37 10 -41 -5 -3 -10 -22 -10 -41 0 -19 -4 -34 -10 -34
-5 0 -10 -10 -10 -22 0 -29 -9 -42 -37 -56 -13 -8 -28 -34 -41 -72 -20 -63
-14 -78 14 -35 9 14 21 25 28 25 13 1 68 84 79 123 4 15 12 27 17 27 14 0 12
84 -2 98 -8 8 -8 15 0 24 11 14 4 63 -19 136 -11 34 -16 37 -39 22z"/>
<path d="M4086 8073 c-3 -3 -6 -29 -6 -57 1 -46 4 -53 33 -71 18 -11 36 -30
42 -43 13 -29 25 -28 25 2 0 13 -16 43 -35 66 -22 26 -35 52 -35 70 0 29 -12
45 -24 33z"/>
<path d="M5304 8043 c-4 -22 -21 -54 -40 -76 -33 -36 -43 -70 -25 -82 5 -3 12
4 16 14 3 11 22 30 41 41 33 21 34 24 34 81 0 66 -15 79 -26 22z"/>
<path d="M3790 7975 c-12 -19 -20 -43 -18 -52 1 -10 -4 -38 -11 -61 -11 -32
-12 -45 -3 -54 8 -8 13 -6 18 8 4 10 16 31 26 46 20 29 35 148 19 148 -5 0
-19 -16 -31 -35z"/>
<path d="M5586 7953 c4 -40 16 -74 38 -108 33 -53 48 -43 27 17 -6 17 -11 45
-11 63 0 31 -32 85 -51 85 -5 0 -7 -24 -3 -57z"/>
<path d="M5370 7908 c0 -15 5 -30 10 -33 13 -8 13 25 0 45 -8 12 -10 9 -10
-12z"/>
<path d="M4026 7904 c-3 -9 -6 -23 -6 -32 0 -21 15 -5 25 26 7 25 -9 31 -19 6z"/>
<path d="M3822 7852 c-7 -13 -12 -33 -10 -45 l3 -22 13 23 c7 13 12 33 10 45
l-3 22 -13 -23z"/>
<path d="M5576 7851 c-8 -13 11 -51 25 -51 6 0 8 9 4 23 -10 30 -21 41 -29 28z"/>
<path d="M3820 7486 c0 -2 7 -19 15 -37 11 -27 14 -29 15 -12 0 28 -10 53 -21
53 -5 0 -9 -2 -9 -4z"/>
<path d="M5567 7473 c-4 -3 -7 -16 -7 -27 1 -21 1 -21 15 -2 8 11 15 23 15 28
0 10 -14 11 -23 1z"/>
<path d="M4642 6989 c-28 -18 -62 -64 -62 -84 0 -12 26 -3 48 18 20 19 35 22
98 22 81 0 87 7 34 43 -41 27 -75 28 -118 1z"/>
<path d="M4625 6819 c-4 -18 -3 -35 4 -42 8 -8 11 0 11 31 0 50 -6 54 -15 11z"/>
<path d="M4696 6804 c-12 -32 -20 -144 -9 -144 11 0 53 84 53 105 0 8 -4 15
-8 15 -5 0 -13 10 -19 22 -9 21 -10 21 -17 2z"/>
<path d="M6103 6913 c9 -2 23 -2 30 0 6 3 -1 5 -18 5 -16 0 -22 -2 -12 -5z"/>
<path d="M6218 6883 c7 -3 16 -2 19 1 4 3 -2 6 -13 5 -11 0 -14 -3 -6 -6z"/>
<path d="M6290 6861 c14 -11 30 -21 36 -21 7 0 14 -7 18 -15 7 -18 39 -20 34
-3 -5 15 -52 43 -88 53 l-25 6 25 -20z"/>
<path d="M6810 5791 c0 -5 3 -11 8 -13 15 -7 53 -69 59 -98 8 -43 20 -45 26
-5 5 30 1 39 -40 79 -48 48 -53 52 -53 37z"/>
<path d="M7166 5425 c4 -8 10 -15 15 -15 4 0 6 7 3 15 -4 8 -10 15 -15 15 -4
0 -6 -7 -3 -15z"/>
<path d="M6944 5365 c-17 -13 -17 -14 -2 -15 9 0 20 5 23 11 11 17 0 20 -21 4z"/>
<path d="M2523 5675 c0 -22 2 -30 4 -17 2 12 2 30 0 40 -3 9 -5 -1 -4 -23z"/>
<path d="M2255 5450 c-10 -11 -16 -22 -13 -25 3 -3 13 6 22 20 20 30 16 32 -9
5z"/>
<path d="M2387 5413 c-7 -6 38 -33 56 -33 5 0 2 9 -8 20 -18 20 -36 25 -48 13z"/>
<path d="M2440 5360 c0 -5 4 -10 10 -10 5 0 27 -16 49 -35 25 -23 45 -33 55
-29 35 13 12 40 -55 64 -63 23 -59 23 -59 10z"/>
<path d="M1962 4732 c-12 -22 -46 -61 -74 -87 l-53 -48 44 6 c55 7 66 18 91
91 26 72 22 91 -8 38z"/>
<path d="M7224 5300 c-37 -15 -35 -27 3 -21 20 3 36 10 35 16 -1 13 -13 15
-38 5z"/>
<path d="M8180 2976 c0 -8 5 -18 10 -21 6 -3 10 3 10 14 0 12 -4 21 -10 21 -5
0 -10 -6 -10 -14z"/>
<path d="M8076 2972 c-3 -5 1 -15 9 -22 16 -14 20 -3 6 19 -5 8 -11 9 -15 3z"/>
<path d="M1230 2767 c0 -18 5 -38 12 -45 17 -17 43 45 27 64 -21 25 -39 16
-39 -19z"/>
<path d="M1647 2234 c-3 -4 3 -20 15 -36 15 -21 23 -27 31 -19 8 8 4 18 -14
36 -14 14 -28 23 -32 19z"/>
<path d="M1686 1913 c-8 -8 -13 -10 -46 -12 -29 -2 -25 -31 4 -31 33 0 98 29
91 40 -7 12 -38 13 -49 3z"/>
<path d="M360 2010 c0 -11 4 -20 9 -20 11 0 22 26 14 34 -12 12 -23 5 -23 -14z"/>
<path d="M290 1908 c-2 -9 -2 -88 0 -120 1 -22 1 -22 15 -5 9 12 11 32 8 55
-6 39 -21 83 -23 70z"/>
<path d="M1080 2796 c0 -9 30 -14 35 -6 4 6 -3 10 -14 10 -12 0 -21 -2 -21 -4z"/>
<path d="M1075 2671 c-3 -5 -1 -12 5 -16 12 -7 30 2 30 16 0 12 -27 12 -35 0z"/>
<path d="M986 2654 c-11 -28 -7 -34 23 -34 35 0 48 15 31 35 -16 20 -46 19
-54 -1z"/>
<path d="M998 2463 c7 -3 16 -2 19 1 4 3 -2 6 -13 5 -11 0 -14 -3 -6 -6z"/>
<path d="M1187 2373 c-19 -19 -5 -33 33 -33 28 0 40 4 40 14 0 21 -56 36 -73
19z"/>
<path d="M1377 1803 c-12 -11 -7 -41 7 -46 21 -8 49 26 34 41 -13 13 -31 16
-41 5z"/>
<path d="M3034 2195 c-3 -8 -3 -19 1 -25 11 -18 25 -11 25 15 0 27 -17 34 -26
10z"/>
<path d="M3725 2749 c-10 -15 3 -25 16 -12 7 7 7 13 1 17 -6 3 -14 1 -17 -5z"/>
<path d="M3807 2724 c-4 -4 -7 -11 -7 -16 0 -13 50 -6 53 7 2 12 -36 19 -46 9z"/>
<path d="M3935 2706 c24 -19 48 -21 43 -3 -3 6 -18 13 -34 15 -28 3 -28 3 -9
-12z"/>
<path d="M5510 2016 c0 -22 17 -28 24 -10 9 22 8 24 -9 24 -8 0 -15 -6 -15
-14z"/>
<path d="M5501 1847 c-17 -17 -13 -47 7 -54 9 -3 25 -13 35 -21 24 -21 39 -4
35 39 -3 28 -8 34 -35 40 -18 3 -36 2 -42 -4z"/>
<path d="M5445 1809 c-4 -6 -3 -15 3 -21 6 -6 11 -4 15 6 7 18 -9 31 -18 15z"/>
<path d="M6866 2783 c-12 -12 -6 -23 23 -38 17 -8 32 -11 36 -6 6 11 -49 53
-59 44z"/>
<path d="M6752 2709 c2 -6 8 -10 13 -10 5 0 11 4 13 10 2 6 -4 11 -13 11 -9 0
-15 -5 -13 -11z"/>
<path d="M7010 2590 c0 -5 5 -10 10 -10 6 0 10 5 10 10 0 6 -4 10 -10 10 -5 0
-10 -4 -10 -10z"/>
<path d="M6852 2228 c-14 -14 -16 -58 -2 -58 12 0 30 33 30 54 0 19 -11 21
-28 4z"/>
<path d="M6535 2129 c-4 -11 -4 -23 -1 -26 8 -9 36 17 36 33 0 22 -28 16 -35
-7z"/>
<path d="M7007 2039 c-4 -13 -7 -36 -7 -51 0 -16 -4 -28 -10 -28 -5 0 -10 -8
-10 -18 0 -11 -9 -27 -20 -37 -12 -10 -18 -25 -16 -32 3 -8 -4 -18 -18 -24
-20 -9 -23 -19 -25 -65 -1 -33 3 -60 11 -68 16 -15 108 -40 117 -31 10 10 4
327 -6 354 l-10 25 -6 -25z"/>
<path d="M6525 2019 c-9 -14 3 -59 15 -59 13 0 32 48 24 61 -7 12 -31 11 -39
-2z"/>
<path d="M6503 1923 c-18 -7 -16 -43 2 -43 18 0 31 28 19 39 -5 5 -15 6 -21 4z"/>
<path d="M8256 2783 c-11 -11 -6 -18 25 -37 34 -20 49 -15 29 9 -18 21 -46 36
-54 28z"/>
<path d="M8142 2708 c6 -18 28 -21 28 -4 0 9 -7 16 -16 16 -9 0 -14 -5 -12
-12z"/>
<path d="M8400 2596 c0 -17 14 -29 23 -20 8 8 -3 34 -14 34 -5 0 -9 -6 -9 -14z"/>
<path d="M8234 2226 c-9 -23 0 -51 16 -51 10 0 16 12 18 33 2 24 -1 32 -13 32
-8 0 -18 -6 -21 -14z"/>
<path d="M7925 2129 c-4 -11 -4 -23 -1 -26 8 -9 36 17 36 33 0 22 -28 16 -35
-7z"/>
<path d="M7920 2000 c0 -19 5 -30 14 -30 17 0 25 18 18 43 -8 29 -32 20 -32
-13z"/>
<path d="M7898 1922 c-25 -5 -23 -42 1 -42 20 0 33 21 23 36 -4 6 -15 8 -24 6z"/>
<path d="M1970 2759 c-20 -46 -26 -89 -12 -89 10 0 45 120 38 128 -3 3 -15
-15 -26 -39z"/>
<path d="M2377 2713 c-12 -15 -16 -48 -17 -178 -2 -191 -1 -238 5 -244 12 -11
32 36 33 74 0 24 5 53 12 64 8 17 8 28 -2 49 -14 28 -15 66 -3 182 7 72 1 84
-28 53z"/>
<path d="M2363 2258 c-11 -19 -10 -172 2 -180 6 -5 5 -11 -4 -17 -12 -8 -12
-12 -2 -25 11 -14 11 -16 -4 -16 -16 0 -17 -7 -11 -72 7 -80 20 -103 40 -75
13 16 14 66 4 170 -2 21 0 41 4 43 5 3 8 16 8 29 0 13 5 35 11 48 9 20 7 32
-10 66 -23 45 -26 47 -38 29z"/>
<path d="M2420 1939 c0 -11 5 -17 10 -14 6 3 10 13 10 21 0 8 -4 14 -10 14 -5
0 -10 -9 -10 -21z"/>
<path d="M4476 2021 c-3 -5 1 -14 9 -21 13 -10 15 -9 15 9 0 21 -14 28 -24 12z"/>
<path d="M4410 1801 c0 -11 5 -23 10 -26 6 -3 10 1 10 9 0 9 0 19 1 23 0 4 -4
9 -10 11 -6 2 -11 -5 -11 -17z"/>
<path d="M8627 2707 c-15 -18 -17 -45 -17 -214 0 -161 2 -193 14 -193 10 0 17
16 21 48 4 26 11 61 16 78 7 21 6 40 -3 61 -10 22 -11 58 -7 129 4 55 4 102 0
106 -3 4 -14 -3 -24 -15z"/>
<path d="M8603 2245 c-3 -9 -3 -37 0 -63 4 -26 2 -66 -2 -90 -5 -24 -5 -45 0
-48 10 -6 1 -53 -14 -72 -7 -9 -7 -16 1 -24 7 -7 12 -24 12 -39 0 -28 23 -55
38 -45 8 5 14 51 12 109 -3 118 0 157 10 177 10 18 9 31 -5 66 -17 44 -41 57
-52 29z"/>
<path d="M8681 1954 c0 -11 3 -14 6 -6 3 7 2 16 -1 19 -3 4 -6 -2 -5 -13z"/>
<path d="M8654 1847 c-9 -24 6 -44 18 -22 7 11 6 21 -1 28 -7 7 -12 6 -17 -6z"/>
<path d="M8595 1815 c3 -27 9 -34 75 -85 25 -19 47 -38 48 -42 2 -4 10 -8 18
-8 16 0 19 45 4 55 -6 4 -8 10 -5 15 3 5 3 20 0 33 -6 21 -11 23 -55 19 -41
-3 -50 0 -60 17 -15 29 -28 26 -25 -4z"/>
<path d="M3980 2245 c0 -9 5 -15 11 -13 6 2 11 8 11 13 0 5 -5 11 -11 13 -6 2
-11 -4 -11 -13z"/>
<path d="M963 1846 c-13 -6 -23 -18 -23 -27 0 -18 40 -39 74 -39 13 0 27 -7
30 -16 9 -23 7 -36 -4 -29 -5 3 -10 3 -10 -2 1 -43 90 -56 90 -12 0 16 3 17
19 8 27 -17 48 -5 53 30 5 32 -2 37 -47 32 -11 -1 -24 4 -30 12 -14 18 -92 57
-113 56 -9 -1 -27 -6 -39 -13z"/>
<path d="M632 1817 c-17 -20 8 -44 46 -42 49 3 60 24 13 28 -11 1 -23 7 -25
14 -7 16 -21 17 -34 0z"/>
<path d="M4753 1814 c-8 -21 13 -42 28 -27 13 13 5 43 -11 43 -6 0 -13 -7 -17
-16z"/>
<path d="M4800 1790 c0 -5 7 -10 15 -10 8 0 15 5 15 10 0 6 -7 10 -15 10 -8 0
-15 -4 -15 -10z"/>
<path d="M7397 1573 c-9 -8 24 -32 46 -33 9 0 17 6 17 14 0 21 -47 35 -63 19z"/>
<path d="M5320 1356 c-241 -43 -412 -202 -427 -397 -9 -114 32 -187 129 -229
66 -28 194 -29 267 -1 52 20 155 86 186 121 36 40 51 43 79 15 29 -29 68 -32
125 -9 37 14 42 14 63 0 28 -20 61 -20 98 -1 27 14 30 14 30 0 0 -10 10 -15
33 -15 29 0 35 6 57 48 28 54 88 122 107 122 18 0 17 -2 -22 -87 -19 -42 -35
-77 -35 -79 0 -2 16 -4 35 -4 32 0 37 4 61 51 28 57 89 119 116 119 16 0 16
-3 -2 -32 -37 -62 -43 -77 -36 -102 8 -31 40 -41 80 -26 16 6 31 8 33 6 3 -3
-20 -53 -51 -112 -58 -110 -61 -132 -13 -120 22 5 86 111 178 296 15 31 70 90
84 90 12 0 4 -30 -19 -71 -52 -94 16 -128 115 -57 13 9 22 6 43 -15 37 -37 87
-36 161 3 66 35 65 34 65 17 0 -25 36 -47 74 -47 43 0 67 11 114 51 41 36 88
39 98 7 12 -41 35 -58 76 -58 38 0 107 28 141 58 19 17 29 11 34 -20 10 -65
107 -43 191 44 40 41 50 58 35 58 -4 0 -17 -10 -30 -22 -20 -19 -25 -20 -33
-8 -5 8 -10 22 -10 31 0 9 -7 22 -15 29 -8 7 -15 23 -15 36 0 40 -24 27 -89
-46 -35 -39 -72 -75 -84 -82 -30 -16 -87 -27 -103 -21 -23 9 -16 30 12 37 14
4 43 18 64 31 69 43 75 89 15 101 -44 8 -109 -22 -160 -75 -21 -22 -45 -41
-52 -41 -15 0 -17 26 -3 35 11 7 13 54 4 79 -3 9 -16 16 -29 16 -30 0 -57 -55
-54 -109 2 -22 -3 -46 -10 -55 -19 -23 -78 -21 -85 2 -9 28 19 86 55 116 17
15 29 29 26 32 -14 14 -68 -16 -118 -65 -31 -31 -66 -64 -77 -74 -36 -32 -132
-44 -132 -17 0 5 21 19 48 30 54 24 102 66 102 90 0 22 -20 40 -45 40 -56 0
-95 -22 -166 -95 -80 -82 -105 -86 -65 -9 29 56 26 91 -9 100 -13 3 -32 1 -43
-5 -33 -18 -44 -14 -32 9 13 24 5 40 -19 40 -22 0 -43 -23 -66 -73 -25 -53
-105 -141 -118 -128 -6 6 -2 25 12 53 25 52 27 81 6 98 -21 17 -79 6 -107 -20
l-23 -21 -20 25 c-24 30 -35 32 -75 11 -18 -9 -31 -11 -35 -5 -3 6 -19 10 -35
10 -22 0 -33 -7 -44 -27 -21 -41 -117 -133 -138 -133 -26 0 -22 22 12 80 17
28 30 57 30 65 0 18 -51 20 -67 4 -9 -9 -16 -8 -28 5 -41 40 -137 -2 -230
-101 -128 -137 -232 -196 -347 -195 -93 1 -134 25 -172 99 -32 63 -12 156 55
253 93 137 229 220 360 220 47 0 62 -4 79 -22 59 -64 -28 -168 -142 -168 -54
0 -83 18 -74 47 9 28 56 46 106 41 46 -4 55 15 15 34 -19 8 -38 8 -79 -1 -65
-15 -106 -49 -106 -89 0 -92 254 -78 351 19 59 59 51 112 -21 149 -52 26 -154
33 -250 16z m438 -325 c20 -12 4 -61 -31 -98 -23 -24 -40 -33 -64 -33 -33 0
-37 6 -33 44 6 59 87 114 128 87z m1042 -4 c0 -18 -40 -53 -67 -60 -40 -9 -23
37 22 61 27 15 45 15 45 -1z m530 -1 c0 -14 -68 -66 -88 -66 -20 0 -13 20 17
51 31 30 71 39 71 15z m-230 -20 c0 -8 -4 -18 -10 -21 -5 -3 -10 3 -10 14 0
12 5 21 10 21 6 0 10 -6 10 -14z m406 -12 c9 -35 -10 -74 -37 -74 -16 0 -19 4
-15 17 4 9 2 19 -4 23 -7 4 -3 16 10 33 27 34 38 34 46 1z"/>
<path d="M2225 1350 c-123 -26 -263 -109 -295 -174 -11 -23 -20 -54 -20 -68 0
-33 51 -78 88 -78 42 1 104 33 140 74 40 46 41 61 5 51 -16 -3 -45 -9 -65 -12
-33 -4 -39 -2 -49 21 -31 68 91 132 264 139 43 2 81 -1 84 -6 3 -5 -13 -28
-34 -50 -47 -50 -113 -136 -113 -149 0 -19 -45 -68 -62 -68 -28 0 -95 -37
-102 -56 -5 -13 -2 -15 11 -9 58 24 73 28 79 22 9 -8 -62 -88 -93 -105 -13 -7
-38 -12 -56 -10 -29 3 -32 6 -35 41 -3 33 -6 37 -32 37 -16 0 -32 -5 -35 -11
-4 -6 -19 -10 -33 -9 -49 4 -62 0 -82 -20 -23 -23 -26 -66 -8 -105 32 -70 184
-98 283 -51 63 29 105 76 155 177 22 43 45 79 50 79 6 0 16 -11 22 -25 15 -33
24 -32 23 2 0 20 6 28 20 31 52 8 66 14 81 36 32 50 -31 90 -82 51 -10 -8 -23
-15 -27 -15 -18 0 60 124 101 162 38 35 48 39 75 33 18 -3 82 -8 142 -11 101
-4 116 -2 189 23 43 16 77 32 75 36 -2 5 -60 10 -129 11 -69 2 -208 6 -310 9
-102 3 -203 2 -225 -3z m175 -270 c0 -12 -33 -30 -55 -30 -13 0 -14 4 -5 20
11 20 60 29 60 10z"/>
<path d="M3346 1170 c-43 -46 -56 -70 -38 -70 14 0 122 102 116 111 -11 19
-33 7 -78 -41z"/>
<path d="M3504 1202 c-6 -4 -33 -51 -60 -106 -51 -103 -129 -196 -165 -196
-26 0 -24 16 11 79 38 69 38 81 0 81 -25 0 -33 -7 -50 -40 -12 -23 -39 -59
-62 -80 -60 -59 -75 -52 -38 20 48 95 -5 144 -92 85 -44 -30 -44 -30 -51 -5
-7 29 -36 36 -68 17 -17 -9 -31 -12 -34 -6 -11 17 -73 11 -79 -8 -10 -32 -124
-143 -146 -143 -18 0 -20 4 -14 23 10 34 43 95 54 102 5 3 10 13 10 21 0 16
-65 20 -75 4 -4 -7 -17 -4 -34 6 -52 31 -132 -1 -192 -76 -16 -19 -31 -49 -34
-65 -13 -63 64 -97 137 -59 28 15 33 14 63 -2 29 -15 39 -16 75 -5 31 9 45 9
55 1 8 -6 26 -10 41 -8 21 2 33 14 54 55 14 29 43 69 63 89 52 52 58 25 13
-65 -20 -39 -36 -73 -36 -76 0 -3 16 -5 35 -5 31 0 37 5 60 48 28 53 47 77 89
109 39 31 51 19 25 -25 -35 -59 -41 -93 -22 -114 21 -23 40 -23 88 2 49 25 57
25 73 -1 11 -17 20 -20 48 -16 19 3 47 15 63 26 l29 21 16 -25 c20 -31 46 -32
101 -4 l43 21 21 -21 c28 -28 63 -27 110 3 l39 25 23 -25 c26 -28 71 -32 125
-9 33 13 39 13 64 -2 46 -27 97 -6 159 66 28 32 48 61 44 64 -3 4 -28 -13 -54
-38 -79 -74 -103 -54 -49 42 17 29 30 57 30 63 0 13 -67 13 -75 0 -4 -6 -16
-4 -31 6 -50 34 -130 -3 -228 -105 -46 -48 -86 -66 -86 -38 0 6 13 37 30 67
37 70 37 80 0 80 -23 0 -33 -7 -46 -32 -25 -51 -105 -128 -131 -128 -13 0 -23
3 -23 8 0 8 80 167 117 230 13 24 22 50 19 58 -6 15 -34 19 -52 6z m-906 -174
c18 -18 15 -40 -14 -81 -30 -44 -66 -62 -95 -47 -25 14 -24 44 2 87 29 47 81
67 107 41z m1286 6 c28 -11 19 -61 -16 -98 -41 -43 -70 -52 -93 -30 -23 24
-12 62 30 102 35 32 50 37 79 26z"/>
<path d="M4490 1190 c-11 -11 -33 -47 -50 -80 -29 -57 -51 -73 -66 -49 -12 20
-93 3 -137 -29 -81 -57 -111 -137 -67 -177 21 -19 72 -17 127 6 28 11 34 11
51 -4 31 -29 79 -19 128 24 20 19 21 19 42 -11 19 -25 29 -30 65 -30 23 0 60
9 82 19 38 18 135 100 135 114 0 15 -22 6 -48 -19 -38 -37 -101 -64 -134 -57
-40 8 -34 21 20 44 86 37 127 95 83 119 -52 27 -120 -4 -206 -96 -59 -62 -95
-81 -95 -48 0 14 53 120 121 240 10 19 19 39 19 44 0 18 -49 11 -70 -10z
m-136 -156 c29 -11 16 -64 -27 -111 -14 -16 -32 -23 -59 -23 -35 0 -38 2 -38
29 0 43 58 106 102 110 3 1 13 -2 22 -5z m334 -11 c-2 -10 -18 -28 -37 -40
-62 -42 -83 -23 -32 28 33 33 75 40 69 12z"/>
<path d="M3633 1154 c-19 -8 -16 -54 3 -61 24 -9 49 10 49 38 0 24 -24 34 -52
23z"/>
<path d="M7007 1144 c-4 -4 -7 -15 -7 -25 0 -14 7 -16 39 -12 23 3 41 1 45 -6
15 -23 86 -7 86 20 0 3 -19 9 -42 13 -24 3 -59 9 -78 12 -19 3 -38 2 -43 -2z"/>
</g>
</svg>
