<?xml version="1.0" standalone="no"?>
<!DOCTYPE svg PUBLIC "-//W3C//DTD SVG 20010904//EN"
 "http://www.w3.org/TR/2001/REC-SVG-20010904/DTD/svg10.dtd">
<svg version="1.0" xmlns="http://www.w3.org/2000/svg"
 width="500.000000pt" height="500.000000pt" viewBox="0 0 500.000000 500.000000"
 preserveAspectRatio="xMidYMid meet">

<g transform="translate(0.000000,500.000000) scale(0.100000,-0.100000)"
fill="#000000" stroke="none">
<path d="M2475 3806 c-77 -33 -77 -33 -70 -80 10 -56 18 -63 63 -57 47 7 102
64 102 105 0 16 4 25 10 21 6 -3 10 -21 10 -39 0 -26 7 -38 28 -52 15 -9 44
-37 65 -60 43 -49 67 -60 98 -44 14 8 47 10 101 5 94 -9 87 -25 -10 -25 -38 0
-75 -6 -94 -16 l-32 -16 30 -13 29 -12 -50 -6 c-66 -10 -121 -42 -162 -95 -37
-49 -41 -62 -15 -62 15 -1 15 -2 -2 -15 -32 -24 -63 -17 -104 23 -31 29 -40
47 -45 85 -13 97 -63 147 -149 147 -37 0 -55 -6 -89 -32 -64 -49 -84 -82 -83
-133 0 -24 8 -55 17 -69 10 -14 17 -44 17 -66 0 -37 2 -41 20 -35 13 4 20 2
20 -7 0 -8 9 -20 20 -28 11 -8 20 -20 20 -27 0 -6 9 -15 21 -18 35 -11 64 25
105 130 7 18 8 17 11 -7 3 -14 -5 -46 -16 -69 -26 -54 -13 -69 23 -28 15 17
30 28 33 25 7 -7 -65 -96 -78 -96 -6 0 -6 -7 1 -19 16 -32 12 -34 -21 -10 -68
48 -168 29 -223 -44 -16 -21 -41 -38 -66 -46 -38 -11 -40 -13 -40 -54 0 -25
-9 -56 -21 -76 -25 -42 -32 -37 -18 14 16 57 6 108 -41 197 -23 44 -45 101
-49 126 -5 26 -12 56 -16 67 -7 16 -6 18 6 8 18 -18 84 -16 99 2 7 8 25 15 41
15 34 0 48 19 26 35 -10 7 -17 17 -17 24 0 6 -21 21 -47 32 l-48 20 -61 -63
c-56 -58 -62 -68 -75 -133 -29 -148 -9 -360 42 -444 22 -37 18 -35 127 -51
106 -16 144 -6 240 65 78 57 114 71 152 57 23 -8 22 -9 -13 -16 -20 -4 -37
-10 -36 -14 0 -4 27 -30 59 -58 57 -49 88 -65 195 -98 l50 -16 -70 6 c-42 3
-90 14 -121 28 l-51 23 4 -71 c1 -39 3 -80 4 -91 1 -11 -5 -48 -12 -82 l-13
-62 -76 -6 c-227 -19 -184 -22 280 -22 361 0 469 3 400 9 -130 12 -132 13
-155 48 -11 16 -42 46 -69 67 -52 39 -50 53 5 30 l33 -13 80 159 81 159 0 177
0 176 -33 69 c-31 66 -35 101 -7 63 12 -16 13 -16 19 5 9 35 7 84 -5 115 l-10
28 23 -23 c18 -17 23 -34 23 -72 0 -28 2 -50 6 -50 3 0 19 15 36 33 22 23 38
57 56 122 24 84 24 92 10 122 -19 40 -88 105 -142 133 -23 11 -85 32 -137 46
-53 13 -105 29 -115 34 -28 15 -79 10 -134 -14z m180 -709 c27 -29 47 -61 57
-98 20 -67 35 -364 19 -374 -7 -4 -11 7 -11 28 0 19 -7 53 -15 76 -10 29 -13
61 -9 99 11 99 -21 209 -81 281 -40 47 -8 38 40 -12z m-223 -642 c-9 -25 -22
-45 -29 -45 -7 0 -13 3 -13 8 0 9 49 82 55 82 2 0 -3 -20 -13 -45z"/>
<path d="M1070 1735 l0 -155 115 0 115 0 0 25 c0 24 -2 24 -82 27 l-83 3 -3
38 -3 37 75 0 c74 0 76 1 76 25 0 23 -3 24 -72 27 l-73 3 0 35 c0 39 -4 37 98
39 65 1 67 2 67 26 l0 25 -115 0 -115 0 0 -155z"/>
<path d="M1445 1876 c-31 -13 -55 -51 -55 -85 0 -34 34 -61 99 -79 71 -20 93
-41 72 -66 -17 -20 -83 -21 -121 -1 -28 14 -30 14 -41 -7 -10 -18 -8 -24 6
-35 49 -35 163 -29 203 10 50 51 25 118 -52 138 -69 17 -96 31 -96 48 0 39 56
53 116 31 30 -12 29 -12 38 16 5 18 1 24 -25 33 -42 15 -107 13 -144 -3z"/>
<path d="M1740 1745 c0 -80 -1 -148 -2 -152 -2 -5 12 -9 30 -11 32 -3 32 -3
32 42 l0 46 55 0 c31 0 69 7 86 16 37 18 61 71 53 113 -13 62 -72 90 -191 91
l-63 0 0 -145z m174 69 c23 -22 20 -60 -6 -78 -12 -9 -42 -16 -65 -16 l-43 0
0 55 0 55 49 0 c32 0 55 -6 65 -16z"/>
<path d="M2175 1876 c-69 -30 -106 -109 -86 -184 34 -126 224 -154 298 -43 30
44 31 122 3 168 -38 63 -142 91 -215 59z m149 -77 c24 -27 27 -38 23 -71 -10
-75 -75 -114 -140 -83 -58 27 -75 99 -36 149 43 55 105 57 153 5z"/>
<path d="M2520 1736 l0 -156 29 0 c28 0 30 3 33 43 3 40 4 42 39 45 34 3 39
-1 65 -42 25 -39 34 -46 62 -46 17 0 32 3 32 8 0 4 -14 25 -30 46 l-30 39 30
34 c31 35 38 72 20 117 -14 39 -64 58 -162 64 l-88 5 0 -157z m180 79 c19 -22
15 -67 -6 -82 -11 -8 -37 -13 -64 -11 l-45 3 -3 53 -3 52 54 0 c36 0 59 -5 67
-15z"/>
<path d="M2852 1863 c3 -26 7 -28 51 -31 l47 -3 0 -125 0 -124 35 0 35 0 0
124 0 125 48 3 c43 3 47 5 47 28 l0 25 -133 3 -133 3 3 -28z"/>
<path d="M3209 1840 c0 -27 -1 -90 -1 -140 0 -49 1 -97 1 -105 1 -12 21 -15
116 -15 l115 0 0 25 c0 25 -1 25 -85 25 l-85 0 0 40 0 40 70 0 c68 0 70 1 70
25 0 24 -2 25 -71 25 l-70 0 3 38 3 37 78 3 c74 3 77 4 77 27 l0 25 -110 0
-110 0 -1 -50z"/>
<path d="M3710 1735 l0 -156 118 3 c113 3 117 4 120 26 3 21 1 22 -82 22 l-86
0 0 40 0 40 70 0 c68 0 70 1 70 25 0 24 -2 25 -70 25 l-70 0 0 40 c0 32 4 39
18 38 9 -1 45 0 80 0 59 2 62 3 62 27 l0 25 -115 0 -115 0 0 -155z"/>
<path d="M1882 1438 c-7 -10 -93 -198 -129 -285 -3 -9 5 -13 26 -13 26 0 34 6
48 35 l17 35 73 0 73 0 14 -35 c13 -29 20 -35 45 -35 17 0 31 3 31 8 0 4 -30
73 -66 155 -63 137 -69 147 -94 147 -15 0 -32 -6 -38 -12z m66 -125 l21 -53
-50 0 c-27 0 -49 4 -49 9 0 20 44 111 50 104 4 -4 16 -32 28 -60z"/>
<path d="M2245 1436 c-157 -70 -103 -296 71 -296 31 0 61 7 82 20 37 23 39 31
13 54 -16 15 -20 15 -31 2 -31 -39 -124 -24 -150 23 -15 29 -12 93 5 118 30
43 106 52 146 17 14 -12 18 -12 33 5 22 24 14 39 -30 57 -42 17 -100 17 -139
0z"/>
<path d="M2570 1304 c-36 -80 -66 -150 -68 -155 -2 -5 10 -9 27 -9 26 0 34 6
48 35 l17 35 73 0 73 0 14 -35 c13 -29 20 -35 45 -35 17 0 31 3 31 8 0 4 -30
73 -66 155 -66 144 -68 147 -98 147 -31 0 -33 -3 -96 -146z m128 9 l21 -53
-50 0 c-27 0 -49 4 -49 9 0 20 44 111 50 104 4 -4 16 -32 28 -60z"/>
<path d="M2995 1436 c-41 -18 -83 -69 -91 -111 -25 -133 127 -233 250 -162 71
40 97 133 58 207 -35 66 -142 99 -217 66z m111 -51 c88 -36 73 -173 -21 -191
-37 -7 -89 15 -105 45 -16 30 -12 93 8 118 15 20 52 41 75 42 4 1 23 -6 43
-14z"/>
<path d="M1791 570 c1 -38 2 -41 8 -15 l6 29 21 -27 c12 -15 24 -27 26 -27 3
0 5 18 6 40 1 22 -3 40 -8 40 -6 0 -10 -12 -10 -26 l0 -25 -25 28 -24 28 0
-45z"/>
<path d="M1912 598 c-33 -33 17 -88 53 -58 25 21 15 64 -15 68 -14 2 -31 -3
-38 -10z m56 -26 c4 -28 -24 -41 -44 -20 -20 20 -7 50 20 46 13 -2 22 -12 24
-26z"/>
<path d="M2091 568 c1 -24 3 -35 6 -26 2 9 14 18 26 20 34 5 29 42 -5 46 -27
3 -28 2 -27 -40z m47 15 c2 -8 -5 -13 -17 -13 -12 0 -21 6 -21 16 0 18 31 15
38 -3z"/>
<path d="M2205 573 c-8 -20 -13 -38 -10 -41 3 -3 5 0 5 6 0 16 43 15 59 0 9
-9 8 -1 -3 26 -9 21 -16 40 -16 42 0 2 -4 4 -10 4 -5 0 -17 -16 -25 -37z m35
2 c0 -8 -7 -15 -15 -15 -9 0 -12 6 -9 15 4 8 10 15 15 15 5 0 9 -7 9 -15z"/>
<path d="M2313 570 c0 -25 2 -35 4 -22 2 12 2 32 0 45 -2 12 -4 2 -4 -23z"/>
<path d="M2370 570 c0 -22 5 -40 10 -40 6 0 10 12 10 28 l0 27 25 -30 24 -30
-1 45 c0 38 -1 40 -7 15 l-6 -29 -18 27 c-25 38 -37 34 -37 -13z"/>
<path d="M2551 568 c2 -30 3 -35 6 -15 2 15 6 27 9 27 3 0 16 -12 29 -27 l24
-28 0 45 c-1 38 -2 41 -8 15 l-6 -29 -21 27 c-12 15 -25 27 -28 27 -3 0 -5
-19 -5 -42z"/>
<path d="M2677 603 c-12 -12 -7 -50 8 -63 35 -29 85 26 53 58 -13 13 -50 16
-61 5z m57 -19 c7 -19 -10 -44 -31 -44 -17 0 -27 24 -19 45 7 20 42 19 50 -1z"/>
<path d="M2862 598 c-16 -16 -15 -43 3 -58 18 -15 49 -9 51 10 0 9 -1 10 -3 3
-6 -17 -28 -16 -43 2 -18 21 -6 43 27 48 27 4 27 4 3 6 -15 0 -31 -4 -38 -11z"/>
<path d="M2977 575 c-20 -42 -22 -54 -5 -37 15 15 58 16 58 0 0 -6 2 -9 5 -6
7 6 -26 78 -35 78 -3 0 -14 -16 -23 -35z m37 0 c3 -9 0 -15 -9 -15 -8 0 -15 7
-15 15 0 8 4 15 9 15 5 0 11 -7 15 -15z"/>
<path d="M3080 570 c0 -22 5 -40 10 -40 6 0 10 18 10 40 0 22 -4 40 -10 40 -5
0 -10 -18 -10 -40z"/>
<path d="M3151 570 c1 -38 2 -41 8 -15 l6 29 21 -27 c12 -15 25 -27 28 -27 3
0 6 18 6 40 0 22 -4 40 -10 40 -5 0 -10 -12 -10 -26 l0 -25 -25 28 -24 28 0
-45z"/>
</g>
</svg>
