<?xml version="1.0" standalone="no"?>
<!DOCTYPE svg PUBLIC "-//W3C//DTD SVG 20010904//EN" "http://www.w3.org/TR/2001/REC-SVG-20010904/DTD/svg10.dtd">
<svg version="1.0" class="fill-red-700 fill-current text-red-700 bg-red-700" xmlns="http://www.w3.org/2000/svg"
    width="500.000000pt" height="500.000000pt" viewBox="0 0 500.000000 500.000000"
    preserveAspectRatio="xMidYMid meet">

    <g transform="translate(0.000000,500.000000) scale(0.100000,-0.100000)"
        fill="#000000" stroke="none">
        <path
            d="M2961 4988 c-48 -5 -93 -22 -185 -66 -66 -33 -143 -65 -171 -71 -58
-14 -109 -58 -126 -108 -9 -27 -7 -46 10 -101 11 -37 26 -96 32 -132 16 -82
44 -115 92 -104 17 3 70 8 117 9 50 1 97 8 112 16 14 8 46 42 71 75 25 34 63
76 86 94 56 46 83 107 90 210 l6 85 20 -40 c15 -31 20 -58 19 -120 -1 -44 -6
-92 -12 -106 -10 -25 -8 -26 56 -54 60 -25 86 -47 257 -219 105 -105 207 -200
227 -211 34 -17 39 -18 55 -3 10 9 38 26 63 39 40 22 58 24 170 24 69 -1 199
-5 289 -10 l164 -8 -34 -18 c-54 -28 -161 -42 -276 -36 -121 7 -237 -9 -302
-43 -41 -20 -131 -96 -131 -109 0 -3 24 -6 53 -7 51 0 143 -21 134 -30 -2 -3
-44 -9 -93 -15 -320 -35 -567 -200 -701 -468 -24 -47 -43 -89 -43 -94 0 -9 51
-5 100 9 l25 7 -25 -28 c-36 -39 -112 -75 -160 -75 -62 0 -136 43 -221 130
-120 121 -129 139 -140 272 -14 169 -50 264 -139 361 -105 115 -223 170 -365
170 -162 1 -301 -66 -450 -217 -102 -102 -156 -193 -174 -289 -11 -62 -9 -86
19 -187 10 -36 21 -82 25 -103 5 -31 13 -41 46 -58 39 -20 41 -22 35 -57 -4
-20 -9 -83 -12 -140 -8 -138 -2 -144 108 -117 29 8 31 6 42 -48 4 -17 16 -31
31 -37 13 -5 31 -23 40 -40 8 -16 20 -30 25 -30 17 0 48 -42 54 -74 12 -65
110 -88 179 -41 116 80 257 335 257 468 0 42 18 23 26 -28 13 -87 -43 -248
-128 -372 -16 -24 -24 -43 -19 -43 6 0 26 -14 46 -31 42 -37 40 -38 114 64 55
76 103 117 136 117 14 0 9 -9 -22 -37 -22 -21 -68 -80 -103 -131 -69 -103
-116 -147 -172 -164 -43 -13 -47 -22 -18 -38 20 -11 63 -78 75 -119 6 -21 -2
-16 -51 28 -183 163 -422 185 -632 59 -81 -49 -168 -132 -229 -220 -47 -67
-59 -78 -83 -78 -41 0 -171 -43 -223 -73 l-44 -26 8 -43 c23 -121 -1 -264 -60
-355 -42 -64 -110 -133 -96 -98 121 306 108 459 -63 785 -135 258 -162 315
-183 397 -22 86 -24 131 -8 187 9 33 8 41 -5 48 -34 19 -95 102 -84 114 2 2
20 -7 39 -21 113 -76 278 -65 364 25 27 28 34 30 102 30 85 0 129 17 144 58
16 41 3 69 -35 83 -29 10 -36 19 -41 49 -11 67 -38 97 -102 116 -32 9 -91 32
-132 50 -41 19 -83 34 -95 34 -14 0 -54 -33 -111 -91 -50 -49 -134 -126 -187
-171 -96 -80 -97 -81 -127 -164 -53 -147 -91 -325 -111 -523 -13 -130 -13
-442 0 -586 23 -256 157 -659 250 -753 42 -42 106 -59 250 -67 63 -4 142 -14
175 -23 42 -11 102 -16 200 -16 125 0 149 3 220 27 112 37 221 102 360 214 66
53 147 113 180 135 116 74 239 95 359 61 l61 -18 -83 -6 c-64 -5 -96 -13 -148
-39 l-66 -32 49 -28 c26 -15 104 -82 173 -147 138 -131 180 -163 289 -217 126
-64 472 -166 561 -166 13 0 21 -3 17 -6 -9 -9 -191 -5 -292 7 -181 22 -402 99
-501 174 -18 14 -35 25 -38 25 -13 0 -5 -102 10 -140 15 -37 15 -46 1 -98 -35
-128 -31 -198 20 -298 l26 -51 -30 -74 c-48 -118 -66 -204 -67 -312 l-1 -97
-30 -4 c-16 -3 -113 -10 -215 -16 -102 -6 -207 -13 -235 -15 -133 -13 -373
-36 -400 -39 -16 -2 -97 -12 -180 -22 -82 -9 -154 -21 -159 -25 -6 -5 846 -9
1923 -9 1066 0 1930 4 1927 9 -3 4 -31 11 -63 14 -32 4 -134 15 -228 26 -93
11 -197 22 -230 25 -33 3 -105 10 -160 15 -55 6 -155 13 -222 17 l-122 7 -41
69 c-72 120 -186 229 -370 352 l-85 57 60 -7 c74 -8 122 -25 203 -69 56 -31
63 -33 69 -17 61 174 114 286 261 543 120 210 162 292 208 407 91 225 118 452
85 707 -9 72 -10 119 -3 165 38 252 -16 511 -173 837 -41 86 -74 158 -72 160
7 7 87 -69 108 -104 22 -36 22 -36 32 -12 22 59 47 201 47 270 0 83 -26 187
-63 249 l-20 35 46 -44 c26 -25 57 -69 73 -105 24 -53 28 -74 29 -156 0 -52
-4 -121 -8 -153 l-9 -59 41 24 c121 68 221 177 261 286 12 31 32 109 45 173
13 63 42 164 65 225 23 60 42 125 43 145 3 77 -109 246 -259 389 -191 182
-354 261 -741 355 -265 65 -302 76 -403 120 -82 36 -148 45 -249 33z m362
-2487 c150 -141 236 -309 278 -541 17 -92 18 -396 1 -495 -11 -67 -10 -75 15
-145 23 -66 26 -91 27 -210 1 -116 -18 -289 -30 -277 -2 2 -6 43 -9 91 -7 125
-31 228 -72 321 -41 93 -40 75 -23 277 37 427 -75 791 -324 1057 l-51 54 54
-29 c30 -16 90 -62 134 -103z m-719 -2182 c-24 -56 -49 -119 -56 -140 -10 -37
-14 -39 -50 -39 l-38 0 21 43 c40 77 150 237 164 237 2 0 -17 -46 -41 -101z" />
    </g>
</svg>